<svg xmlns="http://www.w3.org/2000/svg" width="584" height="373" fill="none"><path fill="url(#a)" stroke="#C7C7C6" stroke-width=".8" d="M.68 43.964c0 1.45-.07 82.397-.14 162.98L.444 317.565l-.032 36.39-.009 10.189-.002 2.684v.688l-.001.174v.055c0 .002 0 .003-.19.003H.4c0 2.627 2.487 4.852 5.683 4.852h571.834c3.196 0 5.683-2.225 5.683-4.852V5.253c0-2.627-2.487-4.852-5.683-4.852V0c0 .4-.001.4-.002.4H323c-.186 0-.425.089-.725.34q-.447.375-.965 1.146c-.69 1.026-1.425 2.51-2.194 4.319-1.397 3.284-2.88 7.568-4.401 11.96l-.457 1.321c-1.676 4.835-3.392 9.693-5.072 13.343-.84 1.824-1.679 3.367-2.513 4.46-.417.548-.843.997-1.279 1.312-.437.315-.904.51-1.394.51H6.363c-3.196 0-5.683 2.226-5.683 4.852Z"/><path stroke="#C7C7C6" stroke-width=".8" d="M0 344.6h584m-584 16h584"/><defs><linearGradient id="a" x1="73" x2="504.547" y1="10.219" y2="363.789" gradientUnits="userSpaceOnUse"><stop offset=".32" stop-color="#F2F2F2"/><stop offset=".769" stop-color="#EBEBEB"/></linearGradient></defs></svg>