<svg xmlns="http://www.w3.org/2000/svg" width="525" height="351" fill="none"><g clip-path="url(#a)"><rect width="525" height="351" fill="#F8F8F8" rx="8"/><path fill="#fff" d="M0 0h525v56H0z"/><rect width="30" height="24" x="16" y="16" fill="#A435F0" rx="4"/><path fill="#fff" d="M25.8 34.16c-2.512 0-4-2.144-4-5.76s1.488-5.76 4-5.76 4 2.144 4 5.76-1.488 5.76-4 5.76m-2.016-4.512 3.632-4.032c-.352-.8-.896-1.216-1.616-1.216-1.328 0-2.08 1.456-2.08 4 0 .448.016.864.064 1.248M25.8 32.4c1.328 0 2.08-1.456 2.08-4 0-.448-.016-.864-.064-1.248l-3.632 4.032c.352.8.896 1.216 1.616 1.216m6.09 1.6v-.88c0-1.36.752-2.496 2.736-4.144 1.6-1.312 2.208-2.144 2.208-3.04 0-.928-.672-1.536-1.632-1.536-.896 0-1.6.544-1.664 1.28h-1.936c0-1.728 1.536-3.04 3.648-3.04s3.584 1.328 3.584 3.232c0 1.408-.816 2.656-2.8 4.304-.992.832-1.568 1.456-1.84 2.064h4.96V34z"/><path fill="#0A0A0A" d="M56.784 34V22.8h3.2c2.704 0 4.56 2.272 4.56 5.6s-1.856 5.6-4.56 5.6zm1.504-1.328h1.696c1.856 0 3.056-1.68 3.056-4.272 0-2.608-1.2-4.272-3.056-4.272h-1.696zM67.386 34V22.8h6.672v1.328h-5.184v3.392h4.496v1.328h-4.496v3.824h5.184V34zm9.306-2.88h1.392c.111 1.04 1.103 1.776 2.4 1.776 1.36 0 2.303-.8 2.303-1.952 0-.992-.687-1.6-2.064-1.888l-.656-.128c-2.047-.4-3.087-1.424-3.087-3.072 0-1.92 1.407-3.216 3.487-3.216 2 0 3.552 1.216 3.648 2.88h-1.391c-.129-.912-1.056-1.568-2.225-1.568-1.231 0-2.063.736-2.063 1.824 0 .928.607 1.504 1.84 1.744l.64.128c2.208.432 3.328 1.504 3.328 3.216 0 2-1.504 3.36-3.713 3.36-2.16 0-3.776-1.312-3.84-3.104M86.349 34v-1.328h2.496v-8.544h-2.464V22.8h6.416v1.328h-2.464v8.544h2.496V34zm12.282-4.752V27.92h3.872V34h-1.344v-1.632h-.048c-.576 1.12-1.536 1.792-2.72 1.792-2.224 0-3.84-2.384-3.84-5.696 0-3.456 1.76-5.824 4.304-5.824 1.808 0 3.296 1.2 3.568 2.88h-1.44c-.24-.912-1.072-1.52-2.096-1.52-1.712 0-2.832 1.728-2.832 4.448 0 2.608 1.04 4.384 2.592 4.384 1.424 0 2.416-1.472 2.416-3.584zm13.018 2.56V22.8h1.376V34h-1.936l-4.256-9.68h-.064V34h-1.392V22.8h2.208l4 9.008zm18.403-.688h1.44c-.24 1.776-1.744 3.04-3.6 3.04-2.544 0-4.288-2.352-4.288-5.76 0-3.424 1.744-5.76 4.272-5.76 1.792 0 3.248 1.184 3.504 2.88h-1.44c-.208-.912-1.04-1.52-2.048-1.52-1.696 0-2.784 1.744-2.784 4.416 0 2.656 1.104 4.368 2.816 4.368 1.072 0 1.92-.672 2.128-1.664m4.026 2.88V22.8h1.504v4.72h4.528V22.8h1.488V34h-1.488v-5.104h-4.528V34zm10.602 0h-1.472l3.36-11.2h2.032l3.344 11.2h-1.488l-.928-3.088h-3.936zm1.296-4.416h3.168l-1.552-5.232h-.064zM154.098 34V22.8h1.488v9.872h5.024V34zm8.921 0V22.8h1.488v9.872h5.024V34zm9.418 0V22.8h6.672v1.328h-5.184v3.392h4.496v1.328h-4.496v3.824h5.184V34zm15.53-2.192V22.8h1.376V34h-1.936l-4.256-9.68h-.064V34h-1.392V22.8h2.208l4 9.008zm7.082-2.56V27.92h3.872V34h-1.344v-1.632h-.048c-.576 1.12-1.536 1.792-2.72 1.792-2.224 0-3.84-2.384-3.84-5.696 0-3.456 1.76-5.824 4.304-5.824 1.808 0 3.296 1.2 3.568 2.88h-1.44c-.24-.912-1.072-1.52-2.096-1.52-1.712 0-2.832 1.728-2.832 4.448 0 2.608 1.04 4.384 2.592 4.384 1.424 0 2.416-1.472 2.416-3.584zM202.178 34V22.8h6.672v1.328h-5.184v3.392h4.496v1.328h-4.496v3.824h5.184V34zm269.166 0v-.608c0-1.28.784-2.464 2.848-4.272 1.696-1.488 2.352-2.4 2.352-3.376 0-1.072-.784-1.792-1.92-1.792-1.088 0-1.936.656-2.032 1.568h-1.456c.048-1.648 1.536-2.88 3.52-2.88s3.392 1.248 3.392 3.056c0 1.376-.832 2.624-2.848 4.368-1.248 1.088-1.92 1.872-2.176 2.624h5.472V34zm13.05.16c-2.4 0-3.84-2.144-3.84-5.76s1.44-5.76 3.84-5.76c2.416 0 3.84 2.144 3.84 5.76s-1.424 5.76-3.84 5.76m-2.256-4.016 4.208-4.672c-.4-.992-1.072-1.52-1.952-1.52-1.536 0-2.4 1.6-2.4 4.448 0 .64.048 1.232.144 1.744m2.256 2.704c1.536 0 2.4-1.616 2.4-4.448 0-.656-.032-1.232-.128-1.744l-4.208 4.672c.4.992 1.056 1.52 1.936 1.52M490.532 34v-.608c0-1.28.784-2.464 2.848-4.272 1.696-1.488 2.352-2.4 2.352-3.376 0-1.072-.784-1.792-1.92-1.792-1.088 0-1.936.656-2.032 1.568h-1.456c.048-1.648 1.536-2.88 3.52-2.88s3.392 1.248 3.392 3.056c0 1.376-.832 2.624-2.848 4.368-1.248 1.088-1.92 1.872-2.176 2.624h5.472V34zm11.017-8.48h-1.424c0-1.68 1.392-2.88 3.328-2.88 1.968 0 3.392 1.248 3.392 2.976 0 1.12-.608 1.952-1.616 2.352v.064c1.264.416 2.032 1.424 2.032 2.784 0 1.936-1.568 3.344-3.744 3.344-2.096 0-3.648-1.312-3.648-3.04h1.44c.032.992.976 1.728 2.224 1.728 1.344 0 2.288-.864 2.288-2.064 0-1.184-.912-2.016-2.192-2.016h-.992v-1.36h.912c1.104 0 1.872-.704 1.872-1.696 0-1.024-.832-1.776-1.968-1.776-1.056 0-1.872.656-1.904 1.584"/><rect width="1260.6" height="1041.98" x="35.7" y="87.7" stroke="#CDCDCD" stroke-width=".6" rx="9.05"/><path fill="#FDFDFD" d="M36 102c0-4.9 0-7.35.954-9.222a8.75 8.75 0 0 1 3.824-3.824C42.649 88 45.1 88 50 88h1232c4.9 0 7.35 0 9.22.954a8.75 8.75 0 0 1 3.83 3.824c.95 1.871.95 4.322.95 9.222v31.5H36z"/><g clip-path="url(#b)"><path fill="#717171" d="M124.142 117.325h12.427c1.576 0 2.397-.814 2.397-2.368v-8.839c0-1.555-.821-2.368-2.397-2.368h-12.427c-1.569 0-2.39.806-2.39 2.368v8.839c0 1.554.821 2.368 2.39 2.368m.094-1.446c-.668 0-1.038-.348-1.038-1.053v-8.578c0-.704.37-1.053 1.038-1.053h3.312v10.684zm12.239-10.684c.668 0 1.039.349 1.039 1.053v8.578c0 .705-.371 1.053-1.039 1.053h-7.554v-10.684zm-10.35 2.658a.487.487 0 0 0 .479-.472.48.48 0 0 0-.479-.464h-1.489a.48.48 0 0 0-.479.464c0 .247.217.472.479.472zm0 1.954a.48.48 0 0 0 .479-.472.48.48 0 0 0-.479-.465h-1.489a.48.48 0 0 0-.479.465c0 .254.217.472.479.472zm0 1.947a.476.476 0 0 0 .479-.465.475.475 0 0 0-.479-.458h-1.489a.474.474 0 0 0-.479.458c0 .254.217.465.479.465zm40.599 4.328-5.318-5.202c-.185-.185-.281-.39-.281-.629a.85.85 0 0 1 .288-.636l5.318-5.195a.78.78 0 0 1 .561-.232.8.8 0 0 1 .813.806.83.83 0 0 1-.246.588l-4.785 4.662 4.785 4.676a.82.82 0 0 1 .246.588.8.8 0 0 1-.813.806.8.8 0 0 1-.568-.232"/><path fill="#BDBCBC" d="M193.003 116.314a.8.8 0 0 0 .567-.232l5.319-5.195c.184-.192.28-.39.28-.636a.83.83 0 0 0-.28-.629l-5.319-5.202a.8.8 0 0 0-.567-.232.8.8 0 0 0-.814.806c0 .219.096.431.247.588l4.792 4.676-4.792 4.662a.83.83 0 0 0-.247.588c0 .451.356.806.814.806"/></g><g clip-path="url(#c)"><circle cx="58.752" cy="110.75" r="5.25" fill="#ED6A5E"/><circle cx="58.752" cy="110.75" r="4.813" stroke="#000" stroke-opacity=".1" stroke-width=".875"/><circle cx="76.251" cy="110.75" r="5.25" fill="#F4BD50"/><circle cx="76.251" cy="110.75" r="4.813" stroke="#000" stroke-opacity=".1" stroke-width=".875"/><circle cx="93.752" cy="110.75" r="5.25" fill="#61C454"/><circle cx="93.752" cy="110.75" r="4.813" stroke="#000" stroke-opacity=".1" stroke-width=".875"/></g><path fill="#F0F0F0" d="M421.221 106.9c0-2.941 0-4.411.572-5.534a5.25 5.25 0 0 1 2.294-2.294c1.123-.572 2.593-.572 5.534-.572h472.325c2.94 0 4.41 0 5.533.572a5.25 5.25 0 0 1 2.294 2.294c.573 1.123.573 2.593.573 5.534v7.7c0 2.94 0 4.41-.573 5.533a5.25 5.25 0 0 1-2.294 2.295c-1.123.572-2.593.572-5.533.572H429.621c-2.941 0-4.411 0-5.534-.572a5.25 5.25 0 0 1-2.294-2.295c-.572-1.123-.572-2.593-.572-5.533z"/><path fill="#717171" d="M401.094 117.75c.13 0 .326-.044.507-.146 4.17-2.288 5.618-3.348 5.618-6.009v-5.518c0-.878-.34-1.192-1.064-1.506-.804-.344-3.504-1.294-4.294-1.564a2.5 2.5 0 0 0-.767-.132c-.246 0-.529.066-.767.132-.79.226-3.49 1.228-4.294 1.564-.724.307-1.064.628-1.064 1.506v5.518c0 2.661 1.455 3.706 5.611 6.009.188.102.384.146.514.146m.391-13.398c.948.38 3.012 1.118 4.098 1.505.202.081.253.19.253.454v5.014c0 2.142-1.064 2.719-4.329 4.707-.203.125-.304.168-.406.168v-11.929c.102 0 .21.022.384.081"/><g clip-path="url(#d)" filter="url(#e)"><path fill="#fff" d="M36 133.5h1260v995.885H36z"/><path fill="#1C1D1F" d="m160.843 352.694-.331 5.383h-15.464v-.923q.414-.036.97-.106.557-.084.734-.154.426-.166.592-.462.165-.295.165-.757v-11.843q0-.426-.13-.698-.13-.284-.627-.509a3.8 3.8 0 0 0-.887-.26 17 17 0 0 0-.817-.154v-.923h9.217v.923q-.378.036-.899.106-.508.06-.888.178-.46.153-.615.485a1.7 1.7 0 0 0-.154.734v11.038q0 .781.107 1.231.107.449.414.662.308.225.852.296.556.06 1.526.059.946 0 1.834-.106.899-.119 1.29-.497.603-.603 1.23-1.692.639-1.1 1.018-2.011zm13.001 2.555q-.414.675-1.005 1.278a6 6 0 0 1-1.325 1.017q-.793.45-1.609.675-.805.237-1.858.237-1.75 0-3.029-.497-1.266-.498-2.094-1.337a5.4 5.4 0 0 1-1.242-1.976 7.5 7.5 0 0 1-.403-2.485 6.18 6.18 0 0 1 1.704-4.283q.805-.84 2.023-1.36 1.232-.52 2.745-.521 1.657 0 2.721.402t1.763 1.112q.675.675.982 1.598a6 6 0 0 1 .308 1.916v.769h-7.998q0 2.426.935 3.692t2.969 1.266a3.47 3.47 0 0 0 2-.604 5.8 5.8 0 0 0 1.514-1.55zm-4.519-4.496q0-.71-.071-1.455t-.249-1.219q-.2-.555-.556-.84-.342-.284-.875-.284-.912 0-1.455.923-.545.923-.592 2.923zm14.066 6.78q-.757.332-1.621.591-.864.273-2.106.272-1.846 0-2.745-.899-.888-.899-.887-2.567v-7.265h-2.13v-1.278h2.177v-3.584h3.845v3.584h3.313v1.278h-3.289v6.484q0 1.384.378 1.964.391.58 1.385.58.32 0 .887-.048.568-.047.793-.106zm5.902.946a7.5 7.5 0 0 1-2.248-.343q-1.088-.331-1.692-.71l-.355.805h-.923l-.153-4.413h.863q.178.533.592 1.206a6.7 6.7 0 0 0 .946 1.195q.557.532 1.266.9.722.366 1.538.366 1.077 0 1.598-.414.532-.426.532-1.301 0-.474-.236-.781a2 2 0 0 0-.651-.533 6 6 0 0 0-1.018-.402q-.544-.165-1.349-.402a15 15 0 0 1-1.384-.473q-.567-.249-1.183-.769a3.5 3.5 0 0 1-.852-1.113q-.32-.65-.319-1.549 0-1.67 1.396-2.698 1.407-1.029 3.679-1.029 1.077 0 1.976.224.911.213 1.527.474l.248-.698h.899l.19 4.034h-.841a4.85 4.85 0 0 0-1.419-2.118q-1.006-.899-2.165-.899-.912 0-1.432.379-.52.378-.521 1.053 0 .899.758 1.301.768.403 2.141.757 2.118.545 3.1 1.491.982.935.982 2.39 0 1.94-1.526 3.005-1.515 1.065-3.964 1.065m19.46.047q-1.539 0-2.875-.378-1.326-.379-2.248-.899l-.817.828h-1.005l-.154-6.07h1.017q.344.865.876 1.822a9 9 0 0 0 1.23 1.716 6.4 6.4 0 0 0 1.609 1.29q.9.497 2.095.497 1.609 0 2.46-.781.864-.793.864-1.988 0-.982-.733-1.645-.723-.674-2.248-1.159l-1.834-.592a31 31 0 0 1-1.562-.556q-1.692-.674-2.52-1.928a5.03 5.03 0 0 1-.816-2.804q0-.982.426-1.881a5 5 0 0 1 1.242-1.633q.78-.675 1.999-1.101t2.651-.425q1.395 0 2.614.39 1.22.378 1.917.769l.722-.71h1.029l.095 5.727h-1.018a20 20 0 0 0-.84-1.882q-.473-.97-1.006-1.609a4.5 4.5 0 0 0-1.336-1.088q-.758-.414-1.775-.414-1.278 0-2.094.721-.805.723-.805 1.787 0 1.006.698 1.644.71.64 2.201 1.124.876.297 1.786.592.912.296 1.621.568 1.716.663 2.603 1.834.9 1.16.899 2.887a4.66 4.66 0 0 1-.508 2.106 4.9 4.9 0 0 1-1.373 1.692 7 7 0 0 1-2.189 1.147q-1.242.402-2.898.402m16.964-.993a14 14 0 0 1-1.621.591q-.862.273-2.106.272-1.845 0-2.744-.899-.888-.899-.888-2.567v-7.265h-2.129v-1.278h2.177v-3.584h3.845v3.584h3.313v1.278h-3.29v6.484q0 1.384.379 1.964.39.58 1.384.58.32 0 .888-.048.567-.047.792-.106zm13.948.295q-.52.225-1.23.415a5.8 5.8 0 0 1-1.503.189q-1.455 0-2.142-.426a2.2 2.2 0 0 1-.934-1.242h-.071a7 7 0 0 1-.781.686 4.3 4.3 0 0 1-.793.485q-.555.26-1.076.379-.51.13-1.432.13-1.373 0-2.343-.805-.97-.816-.97-2.153 0-.77.213-1.302.213-.544.604-.958.354-.378.816-.627a10 10 0 0 1 1.029-.461q1.065-.391 2.556-.805 1.49-.426 2.177-.757v-1.136q0-.296-.048-.781a2.5 2.5 0 0 0-.201-.816 1.55 1.55 0 0 0-.52-.639q-.355-.26-.935-.26-.52 0-.875.153a2.8 2.8 0 0 0-.557.296q.036.237.202.722.165.485.165.935 0 .2-.106.508a1.13 1.13 0 0 1-.308.474q-.272.236-.615.366-.331.13-1.029.13-.994 0-1.503-.473-.509-.484-.509-1.254 0-.663.521-1.183a4.3 4.3 0 0 1 1.289-.876 7.2 7.2 0 0 1 1.716-.544 9 9 0 0 1 1.798-.201q1.148 0 2.106.142a4.9 4.9 0 0 1 1.728.556q.733.414 1.159 1.207.438.78.438 2.047 0 1.336-.059 3.171a115 115 0 0 0-.047 2.413q0 .533.153.84.166.307.497.462.201.094.627.118.438.012.793.012zm-5.88-6.164q-.663.225-1.313.521-.651.284-1.065.603a2.3 2.3 0 0 0-.687.852q-.248.509-.248 1.207 0 .923.414 1.337.426.414 1.041.414.651 0 1.065-.26.427-.273.745-.663zm18.171-3.159q0 .9-.556 1.586-.556.674-1.467.674-.864 0-1.467-.438-.592-.437-.592-1.289 0-.414.06-.639.059-.237.106-.438-.544.024-1.148.379a3.8 3.8 0 0 0-1.064.946v6.496q0 .414.13.686a.92.92 0 0 0 .438.426q.26.13.84.225.591.082.851.094v.864h-7.915v-.864q.296-.024.592-.059.307-.047.52-.118.379-.13.521-.403.142-.272.142-.709v-6.886q0-.426-.201-.758a1.7 1.7 0 0 0-.485-.544 2 2 0 0 0-.545-.236 3.7 3.7 0 0 0-.709-.131v-.863l5.643-.308.178.178v1.715h.047q.816-.947 1.727-1.479.923-.544 1.917-.544 1.1 0 1.763.686.674.675.674 1.751m9.227 9.028q-.757.332-1.621.591-.863.273-2.106.272-1.845 0-2.745-.899-.887-.899-.887-2.567v-7.265h-2.13v-1.278h2.177v-3.584h3.846v3.584h3.312v1.278h-3.289v6.484q0 1.384.379 1.964.39.58 1.384.58.32 0 .888-.048.567-.047.792-.106zm22.098-4.839-.331 5.383h-15.464v-.923q.415-.036.97-.106.557-.084.734-.154.426-.166.592-.462.165-.295.165-.757v-11.843q0-.426-.13-.698-.13-.284-.627-.509a4 4 0 0 0-.887-.26q-.51-.106-.817-.154v-.923h9.217v.923q-.378.036-.899.106-.509.06-.888.178-.46.153-.615.485a1.7 1.7 0 0 0-.154.734v11.038q0 .781.107 1.231.107.449.414.662.308.225.852.296.556.06 1.526.059.946 0 1.834-.106.899-.119 1.29-.497.603-.603 1.23-1.692.639-1.1 1.018-2.011zm13.001 2.555q-.414.675-1.005 1.278a6 6 0 0 1-1.325 1.017q-.793.45-1.609.675-.805.237-1.858.237-1.75 0-3.029-.497-1.266-.498-2.094-1.337a5.4 5.4 0 0 1-1.242-1.976 7.4 7.4 0 0 1-.403-2.485 6.18 6.18 0 0 1 1.704-4.283q.805-.84 2.023-1.36 1.231-.52 2.745-.521 1.657 0 2.721.402t1.763 1.112q.675.675.982 1.598a6 6 0 0 1 .308 1.916v.769h-7.998q0 2.426.935 3.692t2.969 1.266a3.47 3.47 0 0 0 2-.604 5.8 5.8 0 0 0 1.514-1.55zm-4.519-4.496q0-.71-.071-1.455t-.249-1.219q-.2-.555-.556-.84-.342-.284-.875-.284-.912 0-1.456.923t-.591 2.923zm18.787 7.075q-.522.225-1.231.415a5.8 5.8 0 0 1-1.503.189q-1.455 0-2.141-.426a2.2 2.2 0 0 1-.935-1.242h-.071a7 7 0 0 1-.781.686 4.3 4.3 0 0 1-.792.485q-.557.26-1.077.379-.508.13-1.432.13-1.372 0-2.342-.805-.97-.816-.97-2.153 0-.77.213-1.302a3 3 0 0 1 .603-.958q.356-.378.816-.627a10 10 0 0 1 1.03-.461q1.064-.391 2.555-.805 1.491-.426 2.177-.757v-1.136q0-.296-.047-.781a2.6 2.6 0 0 0-.201-.816 1.56 1.56 0 0 0-.521-.639q-.355-.26-.934-.26-.52 0-.876.153a2.8 2.8 0 0 0-.556.296q.036.237.201.722.166.485.166.935 0 .2-.107.508a1.13 1.13 0 0 1-.307.474q-.273.236-.616.366-.33.13-1.029.13-.993 0-1.503-.473-.508-.484-.508-1.254 0-.663.52-1.183a4.3 4.3 0 0 1 1.29-.876 7.2 7.2 0 0 1 1.715-.544 9 9 0 0 1 1.799-.201q1.147 0 2.106.142a4.9 4.9 0 0 1 1.727.556 2.95 2.95 0 0 1 1.16 1.207q.438.78.437 2.047 0 1.336-.059 3.171a123 123 0 0 0-.047 2.413q0 .533.154.84.165.307.497.462.201.094.627.118.438.012.793.012zm-5.881-6.164q-.662.225-1.313.521-.651.284-1.065.603-.437.332-.686.852-.249.509-.249 1.207 0 .923.415 1.337.426.414 1.041.414.651 0 1.065-.26.426-.273.745-.663zm18.172-3.159q0 .9-.556 1.586-.556.674-1.467.674-.864 0-1.467-.438-.592-.437-.592-1.289 0-.414.059-.639.06-.237.107-.438-.545.024-1.148.379a3.8 3.8 0 0 0-1.065.946v6.496q0 .414.13.686a.93.93 0 0 0 .438.426q.261.13.84.225.591.082.852.094v.864h-7.915v-.864q.296-.024.591-.059.308-.047.521-.118.378-.13.52-.403.142-.272.142-.709v-6.886q0-.426-.201-.758a1.7 1.7 0 0 0-.485-.544 2 2 0 0 0-.544-.236 3.7 3.7 0 0 0-.71-.131v-.863l5.644-.308.177.178v1.715h.047q.817-.947 1.728-1.479a3.7 3.7 0 0 1 1.917-.544q1.1 0 1.762.686.675.675.675 1.751m16.042 9.572h-7.123v-.864l.544-.059q.32-.036.485-.118a.75.75 0 0 0 .355-.379q.107-.249.107-.733v-5.538q0-1.206-.45-1.81-.437-.615-1.301-.615-.473 0-.888.142a3.3 3.3 0 0 0-.792.414q-.343.237-.556.485-.202.249-.343.438v6.353q0 .415.118.698.119.273.39.415.19.107.474.189.283.083.556.118v.864h-7.194v-.864q.296-.024.592-.059.307-.047.52-.118.379-.13.521-.403.142-.272.142-.709v-6.886a1.5 1.5 0 0 0-.189-.722 1.7 1.7 0 0 0-.497-.58 2 2 0 0 0-.545-.236 3.7 3.7 0 0 0-.709-.131v-.863l5.643-.308.178.178v1.715h.047q.331-.296.804-.71a8 8 0 0 1 .876-.674q.437-.284 1.148-.485a5.5 5.5 0 0 1 1.514-.201q1.929 0 2.887 1.1.97 1.089.97 2.899v5.797q0 .438.13.698.13.261.485.414.19.083.462.166.284.083.639.118zm8.185 0h-7.477v-.864a14 14 0 0 0 .603-.059q.296-.036.509-.118.378-.142.533-.403.153-.272.153-.709v-6.886q0-.414-.189-.722a1.55 1.55 0 0 0-.473-.509q-.213-.141-.651-.272a4 4 0 0 0-.781-.166v-.863l5.798-.308.177.178v9.394q0 .413.177.71.178.284.509.426.237.107.521.189.284.083.591.118zm-1.727-16.138q0 .899-.698 1.538a2.34 2.34 0 0 1-1.633.627 2.4 2.4 0 0 1-1.656-.627q-.687-.64-.686-1.538 0-.9.686-1.538a2.37 2.37 0 0 1 1.656-.639 2.33 2.33 0 0 1 1.645.639q.686.638.686 1.538m18.03 16.138h-7.123v-.864l.544-.059q.32-.036.485-.118a.75.75 0 0 0 .355-.379q.107-.249.107-.733v-5.538q0-1.206-.45-1.81-.437-.615-1.301-.615a2.7 2.7 0 0 0-.888.142 3.3 3.3 0 0 0-.792.414q-.343.237-.556.485-.202.249-.344.438v6.353q0 .415.119.698.119.273.39.415.19.107.473.189.285.083.557.118v.864h-7.194v-.864q.295-.024.592-.059.307-.047.52-.118.379-.13.521-.403.142-.272.142-.709v-6.886a1.5 1.5 0 0 0-.19-.722 1.7 1.7 0 0 0-.496-.58 2 2 0 0 0-.545-.236 3.7 3.7 0 0 0-.71-.131v-.863l5.644-.308.177.178v1.715h.048q.332-.296.804-.71a8 8 0 0 1 .876-.674q.438-.284 1.148-.485a5.5 5.5 0 0 1 1.514-.201q1.929 0 2.887 1.1.97 1.089.97 2.899v5.797q0 .438.13.698.13.261.485.414.189.083.462.166.284.083.639.118zm13.959-10.412h-2.603q.462.52.686 1.101.237.579.237 1.206 0 .817-.438 1.538a3.6 3.6 0 0 1-1.147 1.16 6 6 0 0 1-1.692.722 8 8 0 0 1-2.106.26h-1.929a1.7 1.7 0 0 0-.319.343.74.74 0 0 0-.166.438q0 .52.414.722t1.503.224q1.077.024 2.177.095 1.1.059 1.573.071.687.036 1.361.284.675.237 1.171.627.545.414.899 1.065.355.639.355 1.479 0 .899-.437 1.692-.426.793-1.314 1.372-.934.603-2.248.935-1.3.331-3.23.331-3.111 0-4.732-.757t-1.621-2.272q0-.935.875-1.538.876-.603 2.722-.662v-.142q-1.089-.367-1.704-.971-.603-.615-.603-1.419 0-.498.236-.84.249-.343.627-.604.331-.225.805-.378.473-.166.792-.261v-.13q-1.596-.591-2.354-1.443-.745-.852-.745-2.083 0-1.739 1.597-2.78 1.609-1.041 4.07-1.041.804 0 1.55.142.757.13 1.147.236h4.591zm-5.549 2.26q0-1.384-.438-2.189-.437-.804-1.348-.804-.462 0-.805.224a1.54 1.54 0 0 0-.556.628 3 3 0 0 0-.272.946 8 8 0 0 0-.071 1.1q0 1.29.449 2.118.45.828 1.278.828.852 0 1.302-.745.46-.745.461-2.106m1.988 9.938q0-.402-.225-.804-.225-.39-1.006-.639-.426-.07-1.408-.095-.97-.023-2.674-.023a3.3 3.3 0 0 0-.698.84q-.272.485-.272 1.171 0 .296.166.651.165.354.521.662.414.344.922.533.51.201 1.538.201 1.527 0 2.331-.592.805-.591.805-1.905"/><path fill="#5624D0" d="M403.186 355.106h1.886a3.4 3.4 0 0 1-.511 1.647q-.447.72-1.256 1.123-.8.404-1.93.404-.884 0-1.584-.303a3.4 3.4 0 0 1-1.199-.883 3.9 3.9 0 0 1-.751-1.389 6 6 0 0 1-.259-1.823v-.637q0-1.01.265-1.824a4 4 0 0 1 .77-1.395 3.4 3.4 0 0 1 1.205-.883 3.8 3.8 0 0 1 1.565-.309q1.15 0 1.937.416.795.417 1.231 1.149.441.732.53 1.666h-1.893a2.4 2.4 0 0 0-.221-.941 1.25 1.25 0 0 0-.574-.586q-.379-.202-1.01-.202a1.8 1.8 0 0 0-.826.176 1.54 1.54 0 0 0-.594.537 2.7 2.7 0 0 0-.359.908 6.3 6.3 0 0 0-.114 1.275v.65q0 .713.107 1.256.107.536.329.908.227.366.58.556.36.183.865.183.592 0 .978-.19.384-.189.586-.561.208-.373.247-.928m4.627-6.644v9.692h-1.817v-9.692zm-.258 6.038h-.499q.007-.713.19-1.312a3.2 3.2 0 0 1 .523-1.048q.341-.447.814-.694.48-.246 1.06-.246.505 0 .915.145.417.139.713.455.303.309.467.814t.164 1.224v4.316h-1.83v-4.329q0-.454-.132-.713a.73.73 0 0 0-.372-.372 1.4 1.4 0 0 0-.594-.114q-.39 0-.668.145a1.16 1.16 0 0 0-.436.404 1.8 1.8 0 0 0-.24.593 3.4 3.4 0 0 0-.075.732m9.253 2.114v-3.041q0-.328-.107-.562a.8.8 0 0 0-.335-.372q-.221-.133-.574-.133a1.2 1.2 0 0 0-.524.108.76.76 0 0 0-.341.296.8.8 0 0 0-.119.448h-1.818q0-.435.202-.826.202-.392.587-.688.386-.303.915-.474.536-.17 1.199-.17.795 0 1.413.265.619.266.972.795.36.53.36 1.325v2.922q0 .561.069.921.07.354.202.619v.107h-1.836a2.6 2.6 0 0 1-.202-.694 6 6 0 0 1-.063-.846m.24-2.619.012 1.029h-1.016q-.36 0-.624.082a1.2 1.2 0 0 0-.436.234.9.9 0 0 0-.252.34 1.2 1.2 0 0 0-.076.429q0 .234.107.423a.76.76 0 0 0 .31.29q.201.101.473.101.41 0 .713-.164t.467-.404a.84.84 0 0 0 .176-.454l.48.77q-.1.258-.278.536-.17.278-.435.524-.265.24-.637.398a2.3 2.3 0 0 1-.884.151 2.65 2.65 0 0 1-1.18-.259 2.15 2.15 0 0 1-.833-.725 1.9 1.9 0 0 1-.303-1.06q0-.537.202-.953.203-.417.594-.701.398-.29.99-.435a5.6 5.6 0 0 1 1.376-.152zm4.608-1.211v5.37h-1.817v-6.828h1.704zm-.265 1.716h-.492q0-.757.196-1.363.195-.612.549-1.041.353-.435.839-.662a2.5 2.5 0 0 1 1.098-.234q.48 0 .877.139t.682.442q.29.303.441.801.159.498.158 1.218v4.354h-1.83v-4.36q0-.455-.126-.707a.7.7 0 0 0-.372-.354 1.5 1.5 0 0 0-.593-.107q-.366 0-.638.145a1.3 1.3 0 0 0-.441.404q-.17.252-.259.593a3 3 0 0 0-.089.732m9.891-3.174h1.647v6.601q0 .933-.417 1.583a2.56 2.56 0 0 1-1.148.991q-.738.34-1.716.341-.429 0-.909-.114a3.6 3.6 0 0 1-.909-.353 2.4 2.4 0 0 1-.719-.606l.801-1.073q.316.367.732.568.417.209.922.209.491 0 .833-.183.34-.177.523-.524.183-.34.183-.827v-5.035zm-4.594 3.496v-.132q0-.783.189-1.42a3.5 3.5 0 0 1 .549-1.104q.36-.461.871-.714a2.6 2.6 0 0 1 1.155-.252q.681 0 1.142.252.461.253.757.72.297.46.461 1.091.17.625.265 1.37v.29a8 8 0 0 1-.284 1.325 4 4 0 0 1-.498 1.073 2.2 2.2 0 0 1-.77.707q-.454.252-1.086.252-.63 0-1.142-.259a2.55 2.55 0 0 1-.864-.725 3.5 3.5 0 0 1-.556-1.098 4.8 4.8 0 0 1-.189-1.376m1.817-.132v.132q0 .423.083.789.081.365.252.65.177.278.435.435.265.152.625.152.499 0 .814-.209.315-.214.473-.586.158-.373.183-.859v-.826a2.8 2.8 0 0 0-.107-.713 1.7 1.7 0 0 0-.265-.549 1.15 1.15 0 0 0-.442-.354 1.5 1.5 0 0 0-.643-.126q-.36 0-.625.164a1.3 1.3 0 0 0-.435.436q-.17.277-.259.656a3.5 3.5 0 0 0-.089.808m8.818 3.59q-.795 0-1.426-.252a3.2 3.2 0 0 1-1.073-.713 3.2 3.2 0 0 1-.668-1.054 3.5 3.5 0 0 1-.234-1.287v-.253q0-.776.221-1.42.22-.643.631-1.117a2.8 2.8 0 0 1 1.01-.725 3.3 3.3 0 0 1 1.337-.259q.726 0 1.288.24.56.24.94.681.384.442.58 1.06.196.613.196 1.363v.758h-5.427v-1.212h3.641v-.139a1.6 1.6 0 0 0-.139-.675 1.06 1.06 0 0 0-.404-.479q-.27-.177-.694-.177-.36 0-.618.158a1.2 1.2 0 0 0-.423.441q-.157.285-.24.669-.075.379-.075.833v.253q0 .41.113.757.12.347.335.599.22.252.53.391.315.14.713.139.492 0 .915-.189.429-.195.738-.587l.883.959a2.7 2.7 0 0 1-.586.593 3.1 3.1 0 0 1-.884.467 3.6 3.6 0 0 1-1.18.177m9.552-1.42q.334 0 .594-.126a1 1 0 0 0 .403-.366q.152-.24.158-.562h1.71q-.006.72-.385 1.281a2.64 2.64 0 0 1-1.016.878q-.637.315-1.426.315-.795 0-1.388-.265a2.7 2.7 0 0 1-.978-.732 3.2 3.2 0 0 1-.587-1.098 4.6 4.6 0 0 1-.195-1.35v-.183q0-.726.195-1.351a3.2 3.2 0 0 1 .587-1.098 2.7 2.7 0 0 1 .978-.738q.587-.265 1.376-.265.838 0 1.47.322.637.322.997.921.366.594.372 1.407h-1.71a1.4 1.4 0 0 0-.145-.618 1.05 1.05 0 0 0-.391-.442 1.1 1.1 0 0 0-.625-.17q-.398 0-.65.17-.252.165-.391.455a2.3 2.3 0 0 0-.196.649q-.05.36-.05.758v.183q0 .397.05.763t.19.65q.144.284.397.448.252.164.656.164m3.467-2.051v-.132q0-.751.215-1.382.214-.637.624-1.104t1.01-.726q.6-.265 1.376-.265t1.382.265q.605.259 1.015.726.417.466.631 1.104.216.631.215 1.382v.132q0 .745-.215 1.382a3.2 3.2 0 0 1-.631 1.105 2.8 2.8 0 0 1-1.009.725q-.6.26-1.376.259-.776 0-1.382-.259a2.9 2.9 0 0 1-1.016-.725 3.3 3.3 0 0 1-.624-1.105 4.3 4.3 0 0 1-.215-1.382m1.818-.132v.132q0 .43.075.802.076.372.24.656.17.277.442.435.271.159.662.158.379 0 .65-.158t.436-.435a2.2 2.2 0 0 0 .239-.656 3.7 3.7 0 0 0 .082-.802v-.132q0-.417-.082-.783a2 2 0 0 0-.246-.656 1.2 1.2 0 0 0-.435-.454 1.25 1.25 0 0 0-.656-.164q-.385 0-.657.164a1.3 1.3 0 0 0-.435.454q-.163.285-.24.656-.075.366-.075.783m9.644 1.842v-5.193h1.817v6.828h-1.71zm.202-1.4.536-.013q0 .681-.158 1.268a3 3 0 0 1-.473 1.01q-.315.423-.795.663-.48.233-1.129.233-.5 0-.922-.139a1.9 1.9 0 0 1-.719-.448 2.2 2.2 0 0 1-.467-.789q-.164-.486-.164-1.167v-4.411h1.817v4.424q0 .303.07.511.076.208.208.341a.76.76 0 0 0 .309.189q.183.057.404.057.562 0 .883-.228.329-.226.461-.618.138-.397.139-.883m4.659-2.304v5.339h-1.817v-6.828h1.71zm2.057-1.533-.031 1.685a5 5 0 0 0-.322-.032 4 4 0 0 0-.335-.019q-.384 0-.668.101a1.2 1.2 0 0 0-.467.284q-.183.19-.278.461a2.2 2.2 0 0 0-.101.618l-.366-.113q0-.663.133-1.218.132-.561.384-.978.26-.417.631-.644a1.6 1.6 0 0 1 .852-.227q.151 0 .31.025.158.02.258.057m4.388 4.985a.6.6 0 0 0-.113-.353q-.114-.158-.423-.291-.303-.138-.877-.252a7 7 0 0 1-.966-.284 3.4 3.4 0 0 1-.769-.423 1.8 1.8 0 0 1-.505-.58 1.6 1.6 0 0 1-.183-.776q0-.43.183-.808.19-.378.536-.669.354-.296.858-.461.511-.17 1.149-.17.89 0 1.527.284.643.284.984.782.347.493.347 1.124h-1.817a1 1 0 0 0-.114-.474.75.75 0 0 0-.34-.334q-.228-.126-.594-.126a1.2 1.2 0 0 0-.523.107.8.8 0 0 0-.341.278.66.66 0 0 0-.114.378q0 .158.063.284.07.12.221.221.152.101.392.189.245.083.605.152.738.151 1.319.397.58.24.921.657.341.41.341 1.079 0 .454-.202.833a2 2 0 0 1-.58.662q-.38.277-.909.436a4.2 4.2 0 0 1-1.18.151q-.953 0-1.615-.341-.657-.34-.997-.864a2 2 0 0 1-.335-1.086h1.723q.012.373.189.6.183.227.461.328.283.1.612.101.353 0 .587-.095a.83.83 0 0 0 .353-.265.64.64 0 0 0 .126-.391m5.928 2.013q-.795 0-1.426-.252a3.2 3.2 0 0 1-1.073-.713 3.2 3.2 0 0 1-.669-1.054 3.6 3.6 0 0 1-.233-1.287v-.253q0-.776.221-1.42.22-.643.631-1.117a2.8 2.8 0 0 1 1.009-.725 3.3 3.3 0 0 1 1.338-.259q.726 0 1.287.24.562.24.941.681.384.442.58 1.06.196.613.196 1.363v.758h-5.427v-1.212h3.641v-.139a1.6 1.6 0 0 0-.139-.675 1.06 1.06 0 0 0-.404-.479q-.271-.177-.694-.177-.36 0-.618.158a1.2 1.2 0 0 0-.423.441q-.158.285-.24.669-.076.379-.076.833v.253q0 .41.114.757.12.347.334.599.221.252.531.391.315.14.713.139.492 0 .915-.189.429-.195.738-.587l.883.959a2.7 2.7 0 0 1-.587.593q-.366.285-.883.467a3.6 3.6 0 0 1-1.18.177"/><path fill="#F7F9FA" d="M36 188.423h1260v104.192H36z"/><rect width="51.692" height="51.692" x="144.232" y="214.189" fill="#1C1D1F" rx="25.846"/><path fill="#fff" d="M158.809 233.251h5.139q1.58 0 2.717.473 1.145.474 1.76 1.401.615.928.615 2.281 0 1.108-.378 1.903a3.56 3.56 0 0 1-1.051 1.316 5.5 5.5 0 0 1-1.581.833l-.899.473h-4.467l-.019-2.215h3.322q.748 0 1.24-.265a1.74 1.74 0 0 0 .738-.738q.256-.474.256-1.098 0-.663-.246-1.146a1.67 1.67 0 0 0-.748-.738q-.501-.255-1.259-.255h-2.3v11.556h-2.839zm7.704 13.781-3.142-6.142 3-.019 3.181 6.029v.132zm7.392-13.781v13.781h-2.84v-13.781zm8.253 0-5.461 6.806-3.152 3.388-.511-2.688 2.13-2.915 3.511-4.591zm-3.227 13.781-4.061-6.37 2.102-1.76 5.319 8.13z"/><path fill="#1C1D1F" d="m219.86 229.275 2.745-11.595h1.533l.35 1.931-2.924 11.85h-1.647zm-1.41-11.595 2.271 11.595-.189 2.186h-1.836l-3.058-13.781zm8.452 11.548 2.243-11.548h2.811l-3.047 13.781h-1.837zm-1.903-11.548 2.764 11.642-.075 2.139h-1.647l-2.944-11.859.379-1.922zm12.579 13.971q-1.192 0-2.139-.379a4.7 4.7 0 0 1-1.609-1.069 4.8 4.8 0 0 1-1.004-1.581 5.3 5.3 0 0 1-.35-1.931v-.379q0-1.164.332-2.129.33-.966.946-1.676a4.16 4.16 0 0 1 1.514-1.088q.891-.388 2.007-.388 1.089 0 1.931.36.843.359 1.41 1.022.577.662.871 1.59.294.918.294 2.044v1.136h-8.141v-1.817h5.462v-.208q0-.569-.208-1.013a1.6 1.6 0 0 0-.606-.719q-.407-.266-1.041-.266-.54 0-.928.237a1.83 1.83 0 0 0-.634.663 3.6 3.6 0 0 0-.36 1.003 6.4 6.4 0 0 0-.113 1.249v.379q0 .615.17 1.136.18.52.502.899a2.3 2.3 0 0 0 .795.587q.473.208 1.069.208.739 0 1.373-.284a3 3 0 0 0 1.107-.88l1.325 1.439a4 4 0 0 1-.88.889 4.7 4.7 0 0 1-1.325.701q-.775.264-1.77.265m8.471-14.728v14.538h-2.736v-14.538zm6.322 12.598q.502 0 .889-.189.388-.2.606-.549a1.6 1.6 0 0 0 .237-.843h2.565a3.4 3.4 0 0 1-.577 1.922 3.97 3.97 0 0 1-1.524 1.315q-.957.474-2.139.474-1.194 0-2.083-.398a4.06 4.06 0 0 1-1.467-1.098 4.8 4.8 0 0 1-.88-1.647 6.8 6.8 0 0 1-.294-2.025v-.275q0-1.088.294-2.025.293-.947.88-1.647.586-.71 1.467-1.108.88-.397 2.064-.397 1.258 0 2.205.483a3.6 3.6 0 0 1 1.495 1.381q.55.89.559 2.111h-2.565a2.1 2.1 0 0 0-.218-.927 1.56 1.56 0 0 0-.587-.663q-.378-.255-.937-.256-.595 0-.975.256a1.6 1.6 0 0 0-.586.682 3.4 3.4 0 0 0-.294.974q-.076.54-.076 1.136v.275q0 .596.076 1.145t.284.975q.218.426.596.672.38.246.985.246m5.281-3.076v-.199q0-1.126.321-2.073a4.8 4.8 0 0 1 .938-1.656q.615-.7 1.514-1.089.899-.397 2.063-.397t2.073.397a4.2 4.2 0 0 1 1.524 1.089q.625.7.947 1.656.321.947.321 2.073v.199a6.5 6.5 0 0 1-.321 2.073 4.8 4.8 0 0 1-.947 1.656q-.615.7-1.514 1.089-.9.388-2.064.388t-2.073-.388a4.3 4.3 0 0 1-1.523-1.089 4.9 4.9 0 0 1-.938-1.656 6.5 6.5 0 0 1-.321-2.073m2.726-.199v.199q0 .644.113 1.202.114.558.36.984.255.417.662.653t.994.237q.569 0 .975-.237.407-.236.653-.653.246-.426.36-.984a5.6 5.6 0 0 0 .123-1.202v-.199q0-.624-.123-1.174a3.1 3.1 0 0 0-.369-.984 1.84 1.84 0 0 0-.653-.681q-.408-.246-.985-.247-.578 0-.984.247a1.9 1.9 0 0 0-.653.681 3.3 3.3 0 0 0-.36.984 5.8 5.8 0 0 0-.113 1.174m11.215-2.906v8.121h-2.735V221.22h2.565zm-.378 2.641h-.758q0-1.07.256-1.969a4.8 4.8 0 0 1 .767-1.571q.51-.672 1.258-1.041t1.733-.369q.68 0 1.249.208.569.2.975.634.417.426.644 1.117.227.681.227 1.638v6.833h-2.726v-6.531q0-.7-.19-1.079a1.08 1.08 0 0 0-.539-.53 2 2 0 0 0-.824-.151q-.53 0-.927.218a1.85 1.85 0 0 0-.644.605q-.255.379-.378.89a4.7 4.7 0 0 0-.123 1.098m6.095-.312-.975.123q0-1.004.246-1.865.256-.861.748-1.514a3.44 3.44 0 0 1 1.24-1.013q.738-.369 1.704-.369.738 0 1.344.218.606.207 1.031.672.436.453.663 1.192.237.738.237 1.808v6.54h-2.736v-6.54q0-.71-.189-1.079a1 1 0 0 0-.53-.521 2 2 0 0 0-.814-.151 1.78 1.78 0 0 0-1.477.729 2.4 2.4 0 0 0-.369.795 3.7 3.7 0 0 0-.123.975m12.9 5.982q-1.192 0-2.139-.379a4.7 4.7 0 0 1-1.609-1.069 4.8 4.8 0 0 1-1.003-1.581 5.3 5.3 0 0 1-.35-1.931v-.379q0-1.164.331-2.129a5 5 0 0 1 .947-1.676 4.15 4.15 0 0 1 1.514-1.088q.89-.388 2.007-.388 1.088 0 1.93.36.843.359 1.411 1.022.577.662.871 1.59a6.7 6.7 0 0 1 .293 2.044v1.136h-8.14v-1.817h5.461v-.208q0-.569-.208-1.013a1.6 1.6 0 0 0-.606-.719q-.406-.266-1.041-.266-.54 0-.927.237a1.84 1.84 0 0 0-.635.663 3.6 3.6 0 0 0-.359 1.003 6.4 6.4 0 0 0-.114 1.249v.379q0 .615.171 1.136.18.52.501.899a2.3 2.3 0 0 0 .795.587q.474.208 1.07.208.739 0 1.372-.284a3 3 0 0 0 1.108-.88l1.325 1.439a4 4 0 0 1-.88.889 4.7 4.7 0 0 1-1.326.701q-.776.264-1.77.265m10.259-14.728h2.726v12.191l-.274 2.347h-2.452zm9.21 9.314v.198q0 1.145-.246 2.102a4.8 4.8 0 0 1-.738 1.656q-.502.691-1.25 1.079-.738.38-1.741.379-.938 0-1.628-.379a3.3 3.3 0 0 1-1.146-1.069 6 6 0 0 1-.747-1.619 12 12 0 0 1-.426-2.026v-.435q.141-1.098.426-2.025a6 6 0 0 1 .747-1.619 3.3 3.3 0 0 1 1.146-1.07q.68-.378 1.609-.378 1.013 0 1.76.388.758.378 1.25 1.079.501.691.738 1.647a8.3 8.3 0 0 1 .246 2.092m-2.726.198v-.198q0-.625-.095-1.174a3.1 3.1 0 0 0-.302-.975 1.7 1.7 0 0 0-.597-.672q-.37-.246-.956-.246-.559 0-.946.189a1.75 1.75 0 0 0-.644.53 2.4 2.4 0 0 0-.369.814q-.124.464-.151 1.023v1.239q.027.749.246 1.326.226.567.681.899.464.322 1.202.322.578 0 .956-.228.379-.227.587-.643.217-.417.303-.975.085-.568.085-1.231m9.786 2.717v-4.562a2 2 0 0 0-.161-.843 1.2 1.2 0 0 0-.501-.558q-.332-.2-.861-.199-.455 0-.786.161a1.14 1.14 0 0 0-.511.445q-.18.284-.18.672h-2.726q0-.653.303-1.24t.88-1.032a4.4 4.4 0 0 1 1.373-.71 6 6 0 0 1 1.798-.255q1.193 0 2.12.397a3.24 3.24 0 0 1 1.458 1.193q.539.795.539 1.988v4.382q0 .843.104 1.382.105.53.303.928v.16h-2.754a4 4 0 0 1-.303-1.041 8.6 8.6 0 0 1-.095-1.268m.36-3.928.019 1.543h-1.524q-.54 0-.937.123a1.75 1.75 0 0 0-.653.35q-.256.217-.379.511-.113.293-.113.644 0 .35.161.634.161.274.463.435.303.152.71.152.616 0 1.07-.246a1.95 1.95 0 0 0 .7-.606q.256-.36.265-.682l.72 1.155q-.152.388-.417.805-.255.416-.653.785-.398.36-.956.597-.558.227-1.325.227-.975 0-1.77-.388a3.2 3.2 0 0 1-1.249-1.089 2.86 2.86 0 0 1-.455-1.59q0-.805.303-1.429a2.8 2.8 0 0 1 .89-1.051q.597-.435 1.486-.653.89-.227 2.063-.227zm8.556 4.297q.501 0 .89-.189.387-.2.605-.549a1.6 1.6 0 0 0 .237-.843h2.565a3.4 3.4 0 0 1-.577 1.922 3.97 3.97 0 0 1-1.524 1.315q-.956.474-2.139.474-1.192 0-2.083-.398a4.1 4.1 0 0 1-1.467-1.098 4.8 4.8 0 0 1-.88-1.647 6.8 6.8 0 0 1-.293-2.025v-.275q0-1.088.293-2.025.294-.947.88-1.647a4 4 0 0 1 1.467-1.108q.88-.397 2.064-.397 1.259 0 2.205.483a3.6 3.6 0 0 1 1.496 1.381q.549.89.558 2.111h-2.565a2.1 2.1 0 0 0-.218-.927 1.57 1.57 0 0 0-.586-.663q-.379-.255-.938-.256-.596 0-.974.256a1.63 1.63 0 0 0-.587.682 3.4 3.4 0 0 0-.294.974q-.075.54-.075 1.136v.275q0 .596.075 1.145.076.549.284.975.217.426.597.672.378.246.984.246m8.442-12.608v14.548h-2.726v-14.548zm6.455 4.307-4.448 5.073-2.385 2.414-.994-1.969 1.893-2.404 2.66-3.114zm-2.83 10.241-3.028-4.732 1.883-1.647 4.288 6.379zm6.427-2.3-.01 1.827q0 1.051-.53 2.12-.52 1.07-1.325 1.751l-1.42-.728q.237-.436.464-.871t.379-.956a4.2 4.2 0 0 0 .151-1.183v-1.96zm6.861-11.481h5.139q1.58 0 2.717.473 1.145.474 1.76 1.401.615.928.615 2.281 0 1.108-.378 1.903a3.6 3.6 0 0 1-1.051 1.316 5.4 5.4 0 0 1-1.581.832l-.899.474h-4.467l-.019-2.215h3.322q.748 0 1.24-.265a1.74 1.74 0 0 0 .738-.738q.256-.474.256-1.098 0-.663-.246-1.146a1.67 1.67 0 0 0-.748-.738q-.501-.255-1.259-.256h-2.3v11.557h-2.839zm7.704 13.781-3.142-6.142 3-.019 3.18 6.029v.132zm3.946-5.016v-.199q0-1.126.322-2.073a4.8 4.8 0 0 1 .937-1.656q.616-.7 1.515-1.089.899-.397 2.063-.397t2.073.397a4.2 4.2 0 0 1 1.524 1.089q.625.7.946 1.656.322.947.322 2.073v.199q0 1.116-.322 2.073a4.8 4.8 0 0 1-.946 1.656q-.615.7-1.514 1.089-.9.388-2.064.388t-2.073-.388a4.3 4.3 0 0 1-1.524-1.089 4.9 4.9 0 0 1-.937-1.656 6.5 6.5 0 0 1-.322-2.073m2.726-.199v.199q0 .644.114 1.202t.36.984q.255.417.662.653t.994.237q.569 0 .975-.237.407-.236.653-.653.246-.426.36-.984a5.6 5.6 0 0 0 .123-1.202v-.199q0-.624-.123-1.174a3.1 3.1 0 0 0-.369-.984 1.84 1.84 0 0 0-.653-.681q-.408-.246-.985-.247-.578 0-.984.247a1.9 1.9 0 0 0-.653.681 3.3 3.3 0 0 0-.36.984 5.8 5.8 0 0 0-.114 1.174m8.49-9.323h2.726v12.191l-.274 2.347h-2.452zm9.21 9.314v.198q0 1.145-.246 2.102a4.8 4.8 0 0 1-.739 1.656 3.54 3.54 0 0 1-1.249 1.079q-.738.38-1.742.379-.936 0-1.628-.379a3.3 3.3 0 0 1-1.145-1.069 6.1 6.1 0 0 1-.748-1.619 12.4 12.4 0 0 1-.426-2.026v-.435a12.4 12.4 0 0 1 .426-2.025q.285-.928.748-1.619a3.3 3.3 0 0 1 1.145-1.07q.682-.378 1.609-.378 1.013 0 1.761.388.757.378 1.249 1.079.502.691.739 1.647a8.3 8.3 0 0 1 .246 2.092m-2.726.198v-.198q0-.625-.095-1.174a3.1 3.1 0 0 0-.303-.975 1.7 1.7 0 0 0-.596-.672q-.37-.246-.956-.246-.558 0-.947.189a1.75 1.75 0 0 0-.643.53 2.4 2.4 0 0 0-.369.814q-.123.464-.152 1.023v1.239q.029.749.246 1.326.228.567.682.899.464.322 1.202.322.577 0 .956-.228.378-.227.587-.643.218-.417.302-.975.086-.568.086-1.231m8.972 5.216q-1.192 0-2.139-.379a4.7 4.7 0 0 1-1.609-1.069 4.8 4.8 0 0 1-1.003-1.581 5.3 5.3 0 0 1-.351-1.931v-.379q0-1.164.332-2.129.33-.966.946-1.676a4.15 4.15 0 0 1 1.515-1.088q.89-.388 2.006-.388 1.088 0 1.931.36.843.359 1.41 1.022.578.662.871 1.59.294.918.294 2.044v1.136h-8.14v-1.817h5.461v-.208q0-.569-.208-1.013a1.6 1.6 0 0 0-.606-.719q-.406-.266-1.041-.266-.54 0-.928.237a1.83 1.83 0 0 0-.634.663 3.6 3.6 0 0 0-.36 1.003 6.4 6.4 0 0 0-.113 1.249v.379q0 .615.17 1.136.18.52.502.899a2.3 2.3 0 0 0 .795.587q.473.208 1.069.208.739 0 1.373-.284a3 3 0 0 0 1.107-.88l1.325 1.439a4 4 0 0 1-.88.889 4.7 4.7 0 0 1-1.325.701q-.776.264-1.77.265m8.319-8.197v8.007h-2.726V221.22h2.565zm3.086-2.3-.047 2.527a6 6 0 0 0-.483-.047 5 5 0 0 0-.502-.029q-.577 0-1.003.152a1.8 1.8 0 0 0-.701.426 1.9 1.9 0 0 0-.416.691q-.132.407-.151.927l-.549-.17q0-.994.198-1.827a5 5 0 0 1 .578-1.467q.387-.624.946-.965a2.4 2.4 0 0 1 1.278-.341q.227 0 .464.038a1.7 1.7 0 0 1 .388.085m6.615.066v1.931h-5.963v-1.931zm-4.486-2.527h2.726v9.683q0 .445.113.681a.7.7 0 0 0 .36.332q.237.084.596.085.256 0 .455-.019.208-.029.35-.057l.009 2.007a5 5 0 0 1-.757.179 5.5 5.5 0 0 1-.899.067q-.899 0-1.571-.294a2.16 2.16 0 0 1-1.022-.965q-.36-.663-.36-1.742zM223.66 253.425v3.641q-.215.258-.663.561-.447.297-1.155.511-.706.215-1.71.215a4.4 4.4 0 0 1-1.621-.29 3.5 3.5 0 0 1-1.262-.865 3.9 3.9 0 0 1-.808-1.388q-.284-.827-.284-1.887v-.574q0-1.06.271-1.887a3.9 3.9 0 0 1 .789-1.394 3.4 3.4 0 0 1 1.218-.865 4 4 0 0 1 1.571-.296q1.2 0 1.969.391a2.75 2.75 0 0 1 1.174 1.072q.41.682.504 1.565h-1.836a2.3 2.3 0 0 0-.265-.814 1.36 1.36 0 0 0-.561-.542q-.36-.196-.934-.196-.474 0-.846.196-.366.189-.618.561a2.8 2.8 0 0 0-.385.922q-.133.549-.133 1.274v.587q0 .72.139 1.275.139.549.41.927.278.372.682.562.403.189.94.189.448 0 .745-.076.303-.075.485-.183.19-.113.291-.214v-1.628h-1.729v-1.35zm1.123 1.457v-.132q0-.752.215-1.382.215-.638.624-1.104a2.8 2.8 0 0 1 1.01-.726q.599-.265 1.375-.265.777 0 1.382.265a2.8 2.8 0 0 1 1.016.726q.417.466.631 1.104.215.63.215 1.382v.132q0 .745-.215 1.382a3.2 3.2 0 0 1-.631 1.104q-.41.468-1.009.726-.6.26-1.376.259-.776 0-1.382-.259a2.9 2.9 0 0 1-1.016-.726 3.3 3.3 0 0 1-.624-1.104 4.3 4.3 0 0 1-.215-1.382m1.817-.132v.132q0 .429.076.802.075.372.24.656.17.277.441.435.272.158.663.158.378 0 .65-.158t.435-.435q.165-.284.24-.656.082-.373.082-.802v-.132q0-.417-.082-.783a2 2 0 0 0-.246-.656 1.2 1.2 0 0 0-.435-.454q-.272-.164-.657-.164a1.24 1.24 0 0 0-.656.164q-.265.163-.435.454-.165.284-.24.656-.076.366-.076.783m9.453 1.937v-3.042q0-.328-.107-.561a.8.8 0 0 0-.335-.372q-.221-.133-.574-.133-.303 0-.524.107a.76.76 0 0 0-.341.297.8.8 0 0 0-.119.448h-1.818q0-.435.202-.827t.587-.688q.386-.302.915-.473.536-.17 1.199-.17.795 0 1.413.265.619.266.972.795.36.53.36 1.325v2.922q0 .561.069.921.07.353.202.618v.108h-1.836a2.6 2.6 0 0 1-.202-.695 6 6 0 0 1-.063-.845m.24-2.619.012 1.029h-1.016q-.36 0-.624.082a1.2 1.2 0 0 0-.436.233.9.9 0 0 0-.252.341q-.076.195-.076.429t.107.423a.76.76 0 0 0 .31.29q.201.1.473.101.41 0 .713-.164.302-.164.467-.404.17-.24.176-.454l.48.77q-.1.258-.278.536-.17.278-.435.524-.265.24-.637.397a2.3 2.3 0 0 1-.884.152 2.65 2.65 0 0 1-1.18-.259 2.16 2.16 0 0 1-.833-.726 1.9 1.9 0 0 1-.303-1.06q0-.536.202-.953t.594-.7a2.8 2.8 0 0 1 .99-.435 5.6 5.6 0 0 1 1.376-.152zm4.909-5.534v9.693h-1.824v-9.693zm1.571 8.815q0-.404.278-.675.283-.271.751-.271.466 0 .744.271.285.272.284.675 0 .405-.284.676-.278.271-.744.271-.468 0-.751-.271a.9.9 0 0 1-.278-.676m0-5.205q0-.405.278-.676.283-.27.751-.271.466 0 .744.271.285.271.284.676a.9.9 0 0 1-.284.675q-.278.271-.744.271-.468 0-.751-.271a.9.9 0 0 1-.278-.675m10.544-2.291-3.041 8.374h-1.243l3.502-9.188h.801zm2.55 8.374-3.048-8.374-.019-.814h.801l3.515 9.188zm-.158-3.402v.997h-5.162v-.997zm6.764 2.076v-8.367h1.174v9.693h-1.073zm-4.594-2.012v-.133q0-.783.19-1.42.195-.643.549-1.104a2.5 2.5 0 0 1 .852-.707 2.4 2.4 0 0 1 1.11-.252q.644 0 1.123.227.486.22.821.65.34.423.536 1.022.195.6.271 1.357v.58a6 6 0 0 1-.271 1.351q-.195.599-.536 1.022a2.25 2.25 0 0 1-.821.65 2.7 2.7 0 0 1-1.135.221q-.6 0-1.098-.259a2.6 2.6 0 0 1-.852-.726 3.5 3.5 0 0 1-.549-1.098 4.8 4.8 0 0 1-.19-1.381m1.174-.133v.133q0 .51.101.959.108.447.328.788t.562.537q.34.189.814.189.58 0 .953-.246.378-.246.605-.65.228-.404.354-.877v-1.521a3.4 3.4 0 0 0-.221-.669 2.1 2.1 0 0 0-.366-.58 1.6 1.6 0 0 0-.549-.41 1.8 1.8 0 0 0-.764-.152 1.6 1.6 0 0 0-.826.202 1.6 1.6 0 0 0-.562.543 2.5 2.5 0 0 0-.328.795 4.4 4.4 0 0 0-.101.959m8.487 2.417 1.868-5.774h1.193l-2.455 6.828h-.782zm-1.558-5.774 1.924 5.805.133 1.023h-.783l-2.473-6.828zm9.667 5.66v-3.515q0-.403-.164-.7a1.07 1.07 0 0 0-.48-.467q-.322-.164-.795-.164-.442 0-.776.151a1.36 1.36 0 0 0-.518.398.87.87 0 0 0-.183.53h-1.167q0-.366.189-.726.19-.359.543-.65.36-.296.858-.466a3.4 3.4 0 0 1 1.123-.177q.745 0 1.313.252.574.253.896.764.328.504.328 1.268v3.18q0 .341.057.726.063.386.183.663v.101h-1.218a2.2 2.2 0 0 1-.139-.537 4 4 0 0 1-.05-.631m.202-2.972.012.82h-1.18q-.498 0-.89.082a2 2 0 0 0-.656.234 1.1 1.1 0 0 0-.404.397 1.06 1.06 0 0 0-.138.549q0 .323.145.587.145.265.435.423.297.152.726.152.536 0 .946-.228.41-.227.65-.555.246-.328.265-.637l.499.561q-.045.266-.24.587-.195.322-.524.619a2.8 2.8 0 0 1-.77.485 2.5 2.5 0 0 1-.997.19q-.693 0-1.217-.272a2.07 2.07 0 0 1-.808-.725 1.9 1.9 0 0 1-.284-1.029q0-.55.214-.965.215-.423.619-.701.404-.283.972-.429a5.2 5.2 0 0 1 1.268-.145zm3.969-1.23v5.37h-1.168v-6.828h1.105zm-.278 1.697-.486-.019q.007-.7.208-1.293.202-.6.568-1.042a2.54 2.54 0 0 1 2.001-.927q.504 0 .908.139.404.132.688.429a1.9 1.9 0 0 1 .442.77q.151.467.151 1.142v4.474h-1.174v-4.487q0-.536-.157-.858a.97.97 0 0 0-.461-.473 1.65 1.65 0 0 0-.745-.152q-.435 0-.795.183-.353.183-.612.505a2.56 2.56 0 0 0-.536 1.609m8.986 2.84q.416 0 .769-.171a1.6 1.6 0 0 0 .581-.467q.227-.303.259-.687h1.11q-.032.605-.41 1.129a2.8 2.8 0 0 1-.978.839 2.8 2.8 0 0 1-1.331.316q-.771 0-1.344-.272a2.65 2.65 0 0 1-.947-.744 3.4 3.4 0 0 1-.562-1.085 4.6 4.6 0 0 1-.183-1.307v-.265q0-.687.183-1.3a3.3 3.3 0 0 1 .562-1.091q.378-.474.947-.745.573-.271 1.344-.271.801 0 1.4.328.6.322.941.883.346.556.378 1.262h-1.11a1.7 1.7 0 0 0-.24-.763 1.5 1.5 0 0 0-.555-.543 1.55 1.55 0 0 0-.814-.208q-.537 0-.903.215-.36.208-.574.567-.209.354-.303.789a4.3 4.3 0 0 0-.088.877v.265q0 .448.088.884.089.435.297.788.214.354.574.568.366.209.909.209m6.865.959a3.4 3.4 0 0 1-1.294-.24 2.9 2.9 0 0 1-.99-.688 3 3 0 0 1-.631-1.047 3.8 3.8 0 0 1-.221-1.325v-.265q0-.834.246-1.483.246-.657.669-1.111t.959-.688a2.8 2.8 0 0 1 1.111-.233q.73 0 1.262.252.535.253.877.707.34.448.504 1.06.165.606.165 1.325v.524h-5.099v-.953h3.931v-.088a3 3 0 0 0-.189-.884 1.6 1.6 0 0 0-.505-.706q-.347-.278-.946-.278a1.59 1.59 0 0 0-1.307.663q-.24.327-.372.801a4 4 0 0 0-.132 1.092v.265q0 .485.132.915.139.422.398.744.264.322.637.505.378.183.858.183.618 0 1.048-.252.429-.253.75-.676l.707.562a3.3 3.3 0 0 1-.561.637 2.7 2.7 0 0 1-.84.492q-.492.19-1.167.19m8.493-6.954v6.828h-1.173v-6.828zm-1.262-1.811q0-.283.171-.48.176-.195.517-.195.334 0 .511.195a.68.68 0 0 1 .183.48.66.66 0 0 1-.183.467q-.177.189-.511.189-.341 0-.517-.189a.7.7 0 0 1-.171-.467m4.304 3.269v5.37h-1.168v-6.828h1.105zm-.278 1.697-.486-.019q.006-.7.209-1.293.201-.6.567-1.042a2.54 2.54 0 0 1 2.001-.927q.504 0 .908.139.405.132.688.429a1.9 1.9 0 0 1 .442.77q.151.467.151 1.142v4.474h-1.173v-4.487q0-.536-.158-.858a.97.97 0 0 0-.461-.473 1.65 1.65 0 0 0-.744-.152q-.436 0-.795.183-.354.183-.612.505a2.5 2.5 0 0 0-.398.738 2.7 2.7 0 0 0-.139.871m10.62-1.798v5.471h-1.174v-6.828h1.111zm-.24 1.798-.542-.019q.006-.7.183-1.293.176-.6.523-1.042.348-.441.865-.681.517-.246 1.199-.246.479 0 .883.139.404.132.701.422t.46.745q.164.454.164 1.098v4.55h-1.167v-4.493q0-.537-.183-.858a1.04 1.04 0 0 0-.505-.467 1.8 1.8 0 0 0-.77-.152q-.518 0-.864.183-.348.183-.556.505a2.3 2.3 0 0 0-.302.738 4 4 0 0 0-.089.871m4.424-.644-.783.24q.006-.561.183-1.079.183-.517.524-.921.346-.404.852-.637.504-.24 1.155-.24.548 0 .971.145.429.145.72.448.296.297.448.764.151.466.151 1.11v4.487h-1.174v-4.5q0-.573-.183-.889a.95.95 0 0 0-.504-.448 2 2 0 0 0-.77-.133q-.385 0-.682.133a1.4 1.4 0 0 0-.498.366 1.6 1.6 0 0 0-.309.523 2 2 0 0 0-.101.631m7.906 3.61 1.9-6.121h1.249l-2.739 7.881q-.095.254-.252.543a2.6 2.6 0 0 1-.391.562q-.24.264-.581.429-.334.17-.801.17-.14 0-.354-.038a3 3 0 0 1-.302-.063l-.007-.946q.05.006.158.012.114.013.158.013.398 0 .675-.107.278-.101.467-.347.195-.24.334-.663zm-1.394-6.121 1.773 5.301.303 1.23-.84.429-2.511-6.96zm10.361 6.828h-1.168v-7.421q0-.777.303-1.313t.865-.814q.561-.277 1.331-.277.455 0 .89.113.435.108.896.272l-.196.984a6 6 0 0 0-.675-.215 3 3 0 0 0-.833-.107q-.75 0-1.085.341-.328.335-.328 1.016zm1.394-6.828v.896h-3.641v-.896zm2.297 0v6.828h-1.167v-6.828zm4.752 6.954q-.714 0-1.294-.24a2.9 2.9 0 0 1-.99-.688 3.1 3.1 0 0 1-.632-1.047 3.9 3.9 0 0 1-.22-1.325v-.265q0-.834.246-1.483.246-.657.669-1.111.422-.454.959-.688a2.8 2.8 0 0 1 1.11-.233q.732 0 1.262.252.537.253.877.707.342.448.505 1.06.165.606.164 1.325v.524h-5.098v-.953h3.931v-.088a3 3 0 0 0-.189-.884 1.6 1.6 0 0 0-.505-.706q-.348-.278-.947-.278-.397 0-.732.17-.334.165-.574.493t-.372.801a4 4 0 0 0-.133 1.092v.265q0 .485.133.915.139.422.397.744.265.322.638.505.378.183.858.183.618 0 1.047-.252a2.6 2.6 0 0 0 .751-.676l.707.562a3.2 3.2 0 0 1-.562.637 2.7 2.7 0 0 1-.839.492q-.492.19-1.167.19m5.288-9.819v9.693h-1.174v-9.693zm6.177 8.367v-8.367h1.174v9.693h-1.073zm-4.594-2.012v-.133q0-.783.19-1.42.195-.643.549-1.104a2.5 2.5 0 0 1 .852-.707 2.4 2.4 0 0 1 1.11-.252q.644 0 1.123.227.486.22.821.65.34.423.536 1.022.195.6.271 1.357v.58a6 6 0 0 1-.271 1.351q-.195.599-.536 1.022a2.25 2.25 0 0 1-.821.65 2.7 2.7 0 0 1-1.135.221q-.6 0-1.098-.259a2.6 2.6 0 0 1-.852-.726 3.5 3.5 0 0 1-.549-1.098 4.8 4.8 0 0 1-.19-1.381m1.174-.133v.133q0 .51.101.959.108.447.328.788t.562.537q.34.189.814.189.58 0 .953-.246.378-.246.605-.65.228-.404.354-.877v-1.521a3.4 3.4 0 0 0-.221-.669 2.1 2.1 0 0 0-.366-.58 1.6 1.6 0 0 0-.549-.41 1.8 1.8 0 0 0-.764-.152 1.6 1.6 0 0 0-.826.202 1.6 1.6 0 0 0-.562.543 2.5 2.5 0 0 0-.328.795 4.4 4.4 0 0 0-.101.959m27.639-1.338v.436q0 1.047-.284 1.88a4.2 4.2 0 0 1-.802 1.42 3.5 3.5 0 0 1-1.237.89 3.9 3.9 0 0 1-1.583.309 4 4 0 0 1-1.584-.309 3.6 3.6 0 0 1-1.237-.89 4.2 4.2 0 0 1-.814-1.42q-.284-.833-.284-1.88v-.436q0-1.053.284-1.88a4.1 4.1 0 0 1 .801-1.42q.525-.587 1.237-.896a4 4 0 0 1 1.584-.309 3.9 3.9 0 0 1 1.584.309q.719.31 1.237.896.524.587.807 1.42.291.827.291 1.88m-1.912.436v-.448q0-.732-.133-1.288a2.8 2.8 0 0 0-.391-.934 1.7 1.7 0 0 0-.631-.567 1.8 1.8 0 0 0-.852-.196q-.48 0-.852.196a1.7 1.7 0 0 0-.625.567 2.9 2.9 0 0 0-.384.934q-.133.556-.133 1.288v.448q0 .725.133 1.287.132.555.391.94.259.38.631.574.372.196.852.196.479 0 .852-.196.372-.195.624-.574.253-.385.385-.94.133-.562.133-1.287m5.982 3.079q.334 0 .593-.126.258-.134.404-.366.151-.24.157-.562h1.71q-.006.72-.385 1.281-.379.555-1.015.877a3.2 3.2 0 0 1-1.427.316q-.794 0-1.388-.265a2.7 2.7 0 0 1-.978-.732 3.2 3.2 0 0 1-.587-1.098 4.6 4.6 0 0 1-.195-1.351v-.183q0-.724.195-1.35.196-.631.587-1.098a2.7 2.7 0 0 1 .978-.738q.587-.265 1.376-.265.839 0 1.47.322.637.321.997.921.366.593.372 1.407h-1.71a1.4 1.4 0 0 0-.145-.618 1.09 1.09 0 0 0-1.016-.612q-.397 0-.65.17a1.1 1.1 0 0 0-.391.454 2.3 2.3 0 0 0-.195.65q-.051.36-.051.757v.183q0 .398.051.764t.189.65q.145.284.397.448.253.164.657.164m6.739 0q.334 0 .593-.126a1.02 1.02 0 0 0 .562-.928h1.71q-.007.72-.385 1.281-.379.555-1.016.877-.637.316-1.426.316-.795 0-1.389-.265a2.7 2.7 0 0 1-.978-.732 3.2 3.2 0 0 1-.586-1.098 4.5 4.5 0 0 1-.196-1.351v-.183q0-.724.196-1.35.196-.631.586-1.098a2.7 2.7 0 0 1 .978-.738q.587-.265 1.376-.265.84 0 1.47.322.638.321.997.921.366.593.373 1.407h-1.71a1.4 1.4 0 0 0-.146-.618 1.09 1.09 0 0 0-1.016-.612q-.397 0-.649.17a1.1 1.1 0 0 0-.392.454q-.138.285-.195.65-.051.36-.051.757v.183q0 .398.051.764t.189.65q.145.284.398.448.252.164.656.164m7.957-.341v-5.193h1.817v6.828h-1.71zm.202-1.401.536-.012q0 .681-.158 1.268a3 3 0 0 1-.473 1.01q-.315.423-.795.662-.48.234-1.129.234-.5 0-.922-.139a1.9 1.9 0 0 1-.719-.448 2.2 2.2 0 0 1-.467-.789q-.164-.486-.164-1.167v-4.411h1.817v4.423q0 .303.07.512.075.207.208.34a.75.75 0 0 0 .309.19q.183.056.404.056.561 0 .883-.227.329-.227.461-.618.139-.398.139-.884m4.821-2.479v8.14h-1.818v-9.453h1.685zm4.322 2.025v.133q0 .744-.177 1.382a3.4 3.4 0 0 1-.504 1.11 2.4 2.4 0 0 1-.833.732 2.4 2.4 0 0 1-1.136.259q-.625 0-1.085-.253a2.26 2.26 0 0 1-.777-.706 4 4 0 0 1-.498-1.067 8.4 8.4 0 0 1-.29-1.3v-.347q.1-.744.29-1.363.189-.624.498-1.079.316-.46.77-.713a2.2 2.2 0 0 1 1.079-.252q.65 0 1.142.246.499.246.833.707.341.46.511 1.098.177.637.177 1.413m-1.824.133v-.133q0-.435-.075-.801a2.1 2.1 0 0 0-.227-.65 1.09 1.09 0 0 0-1.004-.587q-.372 0-.637.12-.259.12-.423.347a1.6 1.6 0 0 0-.246.543q-.082.315-.101.713v.877q.032.467.177.839.145.366.448.58.303.215.795.215.36 0 .606-.158.246-.163.397-.448.158-.284.221-.656.069-.372.069-.801m6.639 1.817v-3.042q0-.328-.108-.561a.8.8 0 0 0-.334-.372q-.221-.133-.574-.133-.303 0-.524.107a.76.76 0 0 0-.341.297.8.8 0 0 0-.12.448h-1.817q0-.435.202-.827t.587-.688q.384-.302.915-.473.536-.17 1.199-.17.795 0 1.413.265.618.266.972.795.36.53.36 1.325v2.922q0 .561.069.921.07.353.202.618v.108h-1.836a2.6 2.6 0 0 1-.202-.695 6 6 0 0 1-.063-.845m.239-2.619.013 1.029h-1.016q-.36 0-.625.082a1.2 1.2 0 0 0-.435.233.9.9 0 0 0-.252.341q-.076.195-.076.429t.107.423a.77.77 0 0 0 .309.29q.203.1.474.101.41 0 .713-.164t.467-.404q.17-.24.176-.454l.48.77q-.1.258-.278.536-.17.278-.435.524-.265.24-.637.397a2.3 2.3 0 0 1-.884.152 2.65 2.65 0 0 1-1.18-.259 2.16 2.16 0 0 1-.833-.726 1.9 1.9 0 0 1-.303-1.06q0-.536.202-.953a1.9 1.9 0 0 1 .593-.7q.398-.29.991-.435a5.6 5.6 0 0 1 1.376-.152zm6.336-2.669v1.287h-3.976v-1.287zm-2.991-1.685h1.817v6.455q0 .297.076.455a.45.45 0 0 0 .24.221q.157.056.397.056.171 0 .303-.012.139-.019.234-.038l.006 1.338a3.6 3.6 0 0 1-1.104.164q-.6 0-1.048-.196a1.44 1.44 0 0 1-.681-.643q-.24-.442-.24-1.162zm5.944 1.685v6.828h-1.824v-6.828zm-1.937-1.779a.86.86 0 0 1 .277-.657q.278-.258.745-.258.46 0 .738.258a.85.85 0 0 1 .284.657.85.85 0 0 1-.284.656q-.277.259-.738.259-.467 0-.745-.259a.86.86 0 0 1-.277-.656m3.148 5.262v-.132q0-.752.215-1.382.214-.638.625-1.104.41-.468 1.009-.726.6-.265 1.376-.265t1.382.265q.606.258 1.016.726.416.466.631 1.104.214.63.214 1.382v.132q0 .745-.214 1.382a3.2 3.2 0 0 1-.631 1.104 2.8 2.8 0 0 1-1.01.726q-.599.26-1.375.259-.777 0-1.382-.259a2.8 2.8 0 0 1-1.016-.726 3.3 3.3 0 0 1-.625-1.104 4.3 4.3 0 0 1-.215-1.382m1.818-.132v.132q0 .429.076.802.075.372.239.656.17.277.442.435t.663.158q.379 0 .649-.158.272-.158.436-.435.163-.284.24-.656.082-.373.082-.802v-.132q0-.417-.082-.783a2.1 2.1 0 0 0-.246-.656 1.2 1.2 0 0 0-.436-.454 1.24 1.24 0 0 0-.656-.164q-.385 0-.656.164-.265.163-.436.454a2.2 2.2 0 0 0-.239.656 4 4 0 0 0-.076.783m7.547-1.893v5.37h-1.818v-6.828h1.704zm-.265 1.716h-.493q0-.757.196-1.363.195-.612.549-1.041.354-.435.839-.663a2.5 2.5 0 0 1 1.098-.233q.48 0 .877.139.398.138.682.441.29.303.442.802.157.498.157 1.218v4.354h-1.83v-4.361q0-.454-.126-.706a.7.7 0 0 0-.372-.354 1.5 1.5 0 0 0-.593-.107q-.366 0-.638.145a1.26 1.26 0 0 0-.441.404q-.17.252-.259.593a3 3 0 0 0-.088.732m5.799 2.776q0-.404.277-.675.285-.271.751-.271.467 0 .745.271a.9.9 0 0 1 .284.675q0 .405-.284.676-.278.271-.745.271t-.751-.271a.9.9 0 0 1-.277-.676m0-5.205q0-.405.277-.676.285-.27.751-.271.467 0 .745.271a.9.9 0 0 1 .284.676.9.9 0 0 1-.284.675q-.278.271-.745.271t-.751-.271a.9.9 0 0 1-.277-.675m9.559 3.306 1.824-6.411h.883l-.511 2.493-1.962 6.695h-.877zm-1.886-6.411 1.451 6.285.435 2.903h-.87l-2.228-9.188zm6.953 6.279 1.42-6.279h1.218l-2.221 9.188h-.871zm-2.227-6.279 1.773 6.411.644 2.777h-.877l-1.893-6.695-.518-2.493zm8.67 9.314a3.4 3.4 0 0 1-1.294-.24 2.9 2.9 0 0 1-.99-.688 3 3 0 0 1-.631-1.047 3.9 3.9 0 0 1-.221-1.325v-.265q0-.834.246-1.483.246-.657.669-1.111.422-.454.959-.688a2.8 2.8 0 0 1 1.111-.233q.732 0 1.262.252.536.253.877.707.34.448.505 1.06.164.606.164 1.325v.524h-5.099v-.953h3.931v-.088a3 3 0 0 0-.189-.884 1.6 1.6 0 0 0-.505-.706q-.347-.278-.946-.278-.397 0-.732.17-.335.165-.575.493a2.5 2.5 0 0 0-.372.801 4 4 0 0 0-.132 1.092v.265q0 .485.132.915.139.422.398.744.265.322.637.505.378.183.858.183.618 0 1.048-.252.429-.253.751-.676l.706.562a3.3 3.3 0 0 1-.561.637 2.7 2.7 0 0 1-.84.492q-.492.19-1.167.19m4.013-9.819h1.174v8.367l-.101 1.326H466.1zm5.787 6.222v.133q0 .745-.177 1.381a3.4 3.4 0 0 1-.518 1.098 2.4 2.4 0 0 1-.832.726 2.4 2.4 0 0 1-1.13.259 2.8 2.8 0 0 1-1.142-.221 2.25 2.25 0 0 1-.82-.65 3.4 3.4 0 0 1-.537-1.022q-.196-.6-.271-1.351v-.58a6.5 6.5 0 0 1 .271-1.357q.202-.599.537-1.022.334-.43.82-.65.486-.227 1.129-.227.644 0 1.143.252.499.246.832.707.341.46.518 1.104.177.637.177 1.42m-1.174.133v-.133q0-.511-.095-.959a2.5 2.5 0 0 0-.303-.795 1.5 1.5 0 0 0-.549-.543q-.34-.202-.839-.202-.441 0-.77.152a1.7 1.7 0 0 0-.549.41 2.2 2.2 0 0 0-.372.58 3.4 3.4 0 0 0-.208.669v1.521q.101.441.328.852.234.404.618.662.392.26.966.259.473 0 .807-.189.342-.196.549-.537.215-.34.316-.788a4.4 4.4 0 0 0 .101-.959m8.519 3.338h-1.919l.013-.991h1.906q.984 0 1.64-.41.657-.417.985-1.161.334-.751.334-1.755v-.561a4.8 4.8 0 0 0-.189-1.401 2.85 2.85 0 0 0-.556-1.041 2.34 2.34 0 0 0-.896-.65 3.1 3.1 0 0 0-1.205-.221h-2.07v-.997h2.07q.903 0 1.647.303.744.297 1.281.864a3.8 3.8 0 0 1 .833 1.363q.29.796.29 1.792v.549q0 .998-.29 1.799-.29.795-.839 1.357-.543.561-1.313.864-.764.297-1.722.297m-1.269-9.188v9.188h-1.218v-9.188zm9.92 9.314q-.714 0-1.294-.24a2.9 2.9 0 0 1-.991-.688 3.1 3.1 0 0 1-.631-1.047 3.9 3.9 0 0 1-.22-1.325v-.265q0-.834.246-1.483.246-.657.669-1.111.422-.454.959-.688a2.8 2.8 0 0 1 1.11-.233q.732 0 1.262.252.537.253.877.707.342.448.505 1.06.164.606.164 1.325v.524h-5.098v-.953h3.931v-.088a3 3 0 0 0-.189-.884 1.6 1.6 0 0 0-.505-.706q-.347-.278-.947-.278-.397 0-.732.17-.334.165-.574.493t-.372.801a4 4 0 0 0-.133 1.092v.265q0 .485.133.915.139.422.397.744.265.322.638.505.378.183.858.183.618 0 1.047-.252a2.6 2.6 0 0 0 .751-.676l.707.562a3.3 3.3 0 0 1-.562.637 2.7 2.7 0 0 1-.839.492q-.492.19-1.167.19m6.007-1.18 1.868-5.774h1.192l-2.454 6.828h-.783zm-1.559-5.774 1.925 5.805.132 1.023h-.782l-2.474-6.828zm8.487 6.954q-.712 0-1.293-.24a2.9 2.9 0 0 1-.991-.688 3.1 3.1 0 0 1-.631-1.047 3.9 3.9 0 0 1-.221-1.325v-.265q0-.834.246-1.483.246-.657.669-1.111t.959-.688a2.8 2.8 0 0 1 1.111-.233q.732 0 1.262.252.537.253.877.707.341.448.505 1.06.164.606.164 1.325v.524h-5.099v-.953h3.932v-.088a2.9 2.9 0 0 0-.19-.884 1.6 1.6 0 0 0-.505-.706q-.346-.278-.946-.278-.397 0-.732.17-.334.165-.574.493t-.373.801a4 4 0 0 0-.132 1.092v.265q0 .485.132.915.14.422.398.744.265.322.637.505.38.183.858.183.62 0 1.048-.252.429-.253.751-.676l.707.562a3.3 3.3 0 0 1-.562.637 2.7 2.7 0 0 1-.839.492q-.492.19-1.168.19m5.288-9.819v9.693h-1.173v-9.693zm1.565 6.355v-.146q0-.738.215-1.369.214-.638.618-1.104.404-.474.978-.732a3 3 0 0 1 1.287-.265q.72 0 1.294.265.58.258.984.732.41.466.625 1.104.215.631.215 1.369v.146q0 .738-.215 1.369-.214.63-.625 1.104a2.9 2.9 0 0 1-.978.732 3.1 3.1 0 0 1-1.287.259q-.72 0-1.294-.259a2.95 2.95 0 0 1-.984-.732 3.3 3.3 0 0 1-.618-1.104 4.2 4.2 0 0 1-.215-1.369m1.168-.146v.146q0 .51.119.965.12.448.36.795.246.346.612.549.366.196.852.196.48 0 .839-.196.366-.202.606-.549.24-.346.36-.795a3.6 3.6 0 0 0 .126-.965v-.146q0-.504-.126-.952a2.5 2.5 0 0 0-.366-.802 1.75 1.75 0 0 0-.606-.555 1.7 1.7 0 0 0-.846-.202q-.479 0-.845.202-.36.202-.606.555-.24.348-.36.802-.12.448-.119.952m7.679-2.031v8.14h-1.174v-9.453h1.073zm4.6 2.044v.133q0 .745-.177 1.381-.177.631-.517 1.098a2.35 2.35 0 0 1-.827.726 2.4 2.4 0 0 1-1.129.259q-.65 0-1.149-.215a2.3 2.3 0 0 1-.845-.624 3.2 3.2 0 0 1-.556-.985 5.7 5.7 0 0 1-.277-1.293v-.707q.075-.757.284-1.357.209-.599.549-1.022a2.25 2.25 0 0 1 .839-.65 2.7 2.7 0 0 1 1.136-.227q.644 0 1.142.252.498.246.839.707t.511 1.104q.177.637.177 1.42m-1.174.133v-.133q0-.511-.107-.959a2.4 2.4 0 0 0-.334-.795 1.6 1.6 0 0 0-.568-.543 1.6 1.6 0 0 0-.827-.202q-.441 0-.77.152a1.7 1.7 0 0 0-.549.41 2.2 2.2 0 0 0-.372.58 3.3 3.3 0 0 0-.208.669v1.635q.126.441.353.832.227.385.606.625.378.234.953.234.473 0 .814-.196.346-.202.568-.549.227-.346.334-.795.107-.455.107-.965m5.496 3.464q-.712 0-1.293-.24a2.9 2.9 0 0 1-.991-.688 3.1 3.1 0 0 1-.631-1.047 3.9 3.9 0 0 1-.221-1.325v-.265q0-.834.246-1.483.246-.657.669-1.111t.959-.688a2.8 2.8 0 0 1 1.111-.233q.732 0 1.262.252.537.253.877.707.341.448.505 1.06.164.606.164 1.325v.524h-5.099v-.953h3.932v-.088a2.9 2.9 0 0 0-.19-.884 1.6 1.6 0 0 0-.505-.706q-.346-.278-.946-.278-.398 0-.732.17-.334.165-.574.493t-.373.801a4 4 0 0 0-.132 1.092v.265q0 .485.132.915.14.422.398.744.265.322.637.505.38.183.858.183.62 0 1.048-.252.429-.253.751-.676l.707.562a3.3 3.3 0 0 1-.562.637 2.7 2.7 0 0 1-.839.492q-.492.19-1.168.19m5.187-5.881v5.755h-1.167v-6.828h1.136zm2.133-1.111-.006 1.086a1.6 1.6 0 0 0-.278-.038 3 3 0 0 0-.29-.013q-.404 0-.713.126a1.5 1.5 0 0 0-.524.354 1.7 1.7 0 0 0-.341.542 2.6 2.6 0 0 0-.157.682l-.329.189q0-.618.12-1.161.127-.543.385-.959.26-.423.657-.656.403-.24.959-.24.126 0 .29.031a1 1 0 0 1 .227.057"/><g filter="url(#f)"><path fill="#fff" fill-opacity=".01" d="M36 133.5h1260v54.923H36z"/><path fill="#fff" d="M36 133.5h1260v54.923H36z"/><g clip-path="url(#g)"><g clip-path="url(#h)"><path fill="#A435F0" d="m66.733 153.783-5.675-3.276-5.673 3.276v-3.276l5.674-3.276 5.674 3.276z"/><path fill="#1C1D1F" d="M55.384 156.534h2.973v7.221c0 1.866 1.393 2.776 2.701 2.776 1.32 0 2.703-.934 2.703-2.801v-7.196h2.972v7.393c0 1.719-.54 3.045-1.62 3.955-1.082.909-2.433 1.351-4.08 1.351-1.645 0-2.996-.442-4.052-1.351s-1.597-2.186-1.597-3.881zm37.046 8.975c-.9.801-1.925 1.194-3.094 1.194-2.132 0-3.561-1.215-3.723-3.096h9.603s.065-.608.065-1.178c0-1.769-.565-3.243-1.72-4.446-1.13-1.204-2.603-1.793-4.397-1.793-1.89 0-3.439.589-4.667 1.793-1.204 1.203-1.818 2.775-1.818 4.741v.097c0 1.941.614 3.488 1.818 4.643 1.203 1.154 2.8 1.744 4.74 1.744 2.258 0 4.053-.89 5.4-2.425zm-5.65-6.028c.663-.516 1.475-.786 2.384-.786.859 0 1.571.27 2.186.811.586.493.903 1.098.93 1.793h-6.59q.142-1.078 1.093-1.817zm35.57 11.396c-1.206 2.847-2.467 3.815-4.402 3.815h-1.341v-2.634h1.084c.666 0 1.285-.251 1.874-1.611l.59-1.362-5.085-12.551h3.021l3.611 9.039 3.71-9.039h3.021zm-44.046-19.084v5.862c-.974-.872-2.49-1.392-3.954-1.392-1.745 0-3.218.614-4.422 1.866-1.179 1.228-1.769 2.751-1.769 4.593s.59 3.366 1.77 4.619q1.805 1.843 4.42 1.843c2.012 0 3.283-.791 3.955-1.41v1.139h2.948v-17.119zm-.884 13.633c-.713.712-1.621 1.081-2.678 1.081s-1.916-.369-2.628-1.081c-.687-.713-1.031-1.621-1.031-2.702 0-1.082.344-1.99 1.031-2.703.712-.712 1.572-1.08 2.628-1.08s1.965.368 2.678 1.08c.736.713 1.106 1.621 1.106 2.703s-.37 1.989-1.106 2.702m33.067-9.138c-2.239 0-3.403.929-4.2 1.824-.319-.608-1.218-1.824-3.316-1.824-1.774 0-2.819.897-3.34 1.535v-1.288h-2.923v12.38h2.922v-7.124c0-1.67 1.033-2.874 2.407-2.874 1.402 0 2.212 1.057 2.212 2.751v7.246h2.923v-7.124c0-1.694 1.006-2.874 2.455-2.874 1.401 0 2.211 1.057 2.211 2.751v7.246h2.948v-7.663c0-3.228-1.735-4.961-4.299-4.961z"/></g></g><path fill="#1C1D1F" d="M157.874 164.056v.867h-4.257v-.867zm-4.042-7.172v8.039h-1.065v-8.039zm3.479 3.456v.867h-3.694v-.867zm.508-3.456v.872h-4.202v-.872zm1.749 2.065 1.308 2.175 1.325-2.175h1.198l-1.954 2.948 2.015 3.026h-1.182l-1.38-2.242-1.38 2.242h-1.187l2.01-3.026-1.95-2.948zm5.779 1.148v7.123h-1.027v-8.271h.939zm4.025 1.789v.116q0 .652-.155 1.209a3 3 0 0 1-.452.961 2.06 2.06 0 0 1-.724.635 2.1 2.1 0 0 1-.988.227q-.568 0-1.005-.188a2 2 0 0 1-.74-.547 2.8 2.8 0 0 1-.486-.861 5 5 0 0 1-.243-1.132v-.618q.067-.663.249-1.187.182-.525.48-.895.305-.375.735-.569.43-.198.993-.198.564 0 1 .22.436.216.734.619.299.404.447.966.155.558.155 1.242m-1.027.116v-.116a3.6 3.6 0 0 0-.094-.839 2.1 2.1 0 0 0-.292-.696 1.4 1.4 0 0 0-.497-.474 1.4 1.4 0 0 0-.724-.177q-.386 0-.673.132a1.5 1.5 0 0 0-.481.359 2 2 0 0 0-.325.508 3 3 0 0 0-.183.586v1.43q.11.386.31.728.198.337.53.547.33.204.833.204.414 0 .713-.171.303-.177.497-.48.199-.305.292-.696.094-.398.094-.845m3.278-5.56v8.481h-1.027v-8.481zm1.208 5.56v-.127q0-.646.188-1.198a2.8 2.8 0 0 1 .541-.966q.353-.414.856-.641.502-.231 1.126-.231.63 0 1.132.231.509.227.861.641.359.408.547.966.188.552.188 1.198v.127a3.7 3.7 0 0 1-.188 1.198 2.9 2.9 0 0 1-.547.967 2.5 2.5 0 0 1-.856.64 2.7 2.7 0 0 1-1.126.227q-.63 0-1.132-.227a2.55 2.55 0 0 1-.861-.64 2.9 2.9 0 0 1-.541-.967 3.7 3.7 0 0 1-.188-1.198m1.021-.127v.127q0 .447.105.845.105.391.315.696a1.6 1.6 0 0 0 .536.48q.32.171.745.171.42 0 .734-.171.321-.177.53-.48.21-.305.315-.696a3 3 0 0 0 .111-.845v-.127q0-.441-.111-.833a2.2 2.2 0 0 0-.32-.702 1.5 1.5 0 0 0-.53-.485 1.5 1.5 0 0 0-.74-.177q-.42 0-.74.177-.314.176-.53.485-.21.304-.315.702-.105.392-.105.833m6.558-1.987v5.035h-1.021v-5.974h.994zm1.867-.972-.006.95a2.7 2.7 0 0 0-.497-.045q-.353 0-.624.111-.27.11-.458.309a1.5 1.5 0 0 0-.298.475q-.105.27-.138.596l-.287.166q0-.542.105-1.016a2.7 2.7 0 0 1 .336-.839q.227-.37.575-.575a1.62 1.62 0 0 1 1.093-.182.7.7 0 0 1 .199.05m3.151 6.118q-.624 0-1.132-.21a2.6 2.6 0 0 1-.867-.602 2.7 2.7 0 0 1-.552-.917 3.4 3.4 0 0 1-.193-1.159v-.232q0-.728.215-1.298.216-.573.585-.971a2.5 2.5 0 0 1 .84-.602q.468-.204.971-.204.64 0 1.105.22.468.222.767.619.298.392.442.927.143.53.143 1.16v.458h-4.461v-.834h3.44v-.077a2.6 2.6 0 0 0-.166-.773 1.4 1.4 0 0 0-.441-.618q-.304-.243-.829-.243a1.4 1.4 0 0 0-1.143.58 2.2 2.2 0 0 0-.325.701 3.5 3.5 0 0 0-.116.955v.232q0 .425.116.8.121.37.348.652.231.282.557.442.331.16.751.16.541 0 .917-.221.375-.22.657-.591l.618.492a3 3 0 0 1-.491.557q-.298.265-.735.431-.43.166-1.021.166"/><rect width="241.5" height="34.731" x="950.711" y="143.596" fill="#F7F9FA" rx="12.519"/><rect width="241.5" height="34.731" x="950.711" y="143.596" stroke="#E3E9EE" stroke-width=".808" rx="12.519"/><path fill="#1C1D1F" d="M211.731 156.884h1.033l2.633 6.554 2.629-6.554h1.038l-3.269 8.039h-.806zm-.336 0h.911l.149 4.903v3.136h-1.06zm7.089 0h.911v8.039h-1.06v-3.136zm4.145 7.421 1.662-5.356h1.093l-2.396 6.896a4 4 0 0 1-.221.475 2.2 2.2 0 0 1-.342.491q-.21.232-.508.376a1.5 1.5 0 0 1-.701.149q-.121 0-.31-.033a3 3 0 0 1-.265-.055l-.005-.829q.043.006.138.011.099.012.138.011.348 0 .591-.093a.9.9 0 0 0 .408-.304 1.8 1.8 0 0 0 .293-.58zm-1.22-5.356 1.551 4.638.265 1.077-.734.375-2.197-6.09zm8.489-2.507v8.481h-1.027v-8.481zm3.957 8.592q-.624 0-1.132-.21a2.6 2.6 0 0 1-.867-.602 2.7 2.7 0 0 1-.552-.917 3.4 3.4 0 0 1-.193-1.159v-.232q0-.728.215-1.298a2.9 2.9 0 0 1 .586-.971q.37-.398.839-.602.47-.204.972-.204.64 0 1.104.22.47.222.767.619.298.392.442.927.144.53.144 1.16v.458h-4.462v-.834h3.44v-.077a2.6 2.6 0 0 0-.165-.773 1.4 1.4 0 0 0-.442-.618q-.305-.243-.828-.243-.348 0-.641.149a1.36 1.36 0 0 0-.502.431q-.21.287-.326.701a3.6 3.6 0 0 0-.116.955v.232q0 .425.116.8.121.37.348.652.231.282.557.442.332.16.751.16.542 0 .917-.221.375-.22.657-.591l.618.492a2.8 2.8 0 0 1-.491.557 2.4 2.4 0 0 1-.734.431q-.431.166-1.022.166m6.878-1.132v-3.076q0-.353-.143-.613a.94.94 0 0 0-.42-.408 1.5 1.5 0 0 0-.696-.144q-.386 0-.679.133a1.2 1.2 0 0 0-.452.348.76.76 0 0 0-.161.463h-1.021q0-.32.166-.635.165-.314.474-.568.316-.26.751-.409.442-.154.983-.154.652 0 1.149.22.502.221.784.669.287.441.287 1.109v2.783q0 .298.049.635.056.337.161.58v.088h-1.066a2 2 0 0 1-.122-.469 4 4 0 0 1-.044-.552m.177-2.601.011.718h-1.032q-.437 0-.779.072-.343.066-.574.204a.97.97 0 0 0-.354.348.9.9 0 0 0-.121.48q0 .282.127.514a.93.93 0 0 0 .381.37q.26.132.635.132.47 0 .828-.199.359-.198.569-.486.215-.287.232-.557l.436.491a1.5 1.5 0 0 1-.21.514 2.5 2.5 0 0 1-1.132.966q-.386.166-.872.166-.607 0-1.066-.238a1.8 1.8 0 0 1-.707-.635 1.7 1.7 0 0 1-.248-.9q0-.48.188-.845.187-.369.541-.612.353-.249.85-.376a4.5 4.5 0 0 1 1.11-.127zm3.311-1.413v5.035H243.2v-5.974h.994zm1.867-.972-.006.95a2.7 2.7 0 0 0-.497-.045q-.353 0-.624.111-.27.11-.458.309a1.5 1.5 0 0 0-.298.475q-.105.27-.138.596l-.287.166q0-.542.105-1.016a2.7 2.7 0 0 1 .336-.839q.227-.37.575-.575a1.62 1.62 0 0 1 1.093-.182.7.7 0 0 1 .199.05m1.804 1.308v4.699h-1.022v-5.974h.966zm-.243 1.486-.425-.017q.005-.613.182-1.132a2.8 2.8 0 0 1 .497-.911 2.21 2.21 0 0 1 1.75-.811q.441 0 .795.121.354.116.602.376.254.26.386.673.133.409.133.999v3.915h-1.027v-3.926q0-.469-.138-.75a.85.85 0 0 0-.403-.415 1.45 1.45 0 0 0-.652-.132q-.381 0-.695.16a1.7 1.7 0 0 0-.536.442 2.23 2.23 0 0 0-.469 1.408m6.42-2.761v5.974h-1.027v-5.974zm-1.105-1.585q0-.248.149-.419.154-.171.453-.171.292 0 .447.171a.6.6 0 0 1 .161.419.58.58 0 0 1-.161.409q-.155.166-.447.166-.299 0-.453-.166a.6.6 0 0 1-.149-.409m3.604 2.86v4.699h-1.021v-5.974h.966zm-.243 1.486-.425-.017a3.6 3.6 0 0 1 .182-1.132 2.9 2.9 0 0 1 .497-.911q.321-.386.762-.596.447-.215.989-.215.441 0 .795.121.353.116.602.376.254.26.386.673.132.409.133.999v3.915h-1.027v-3.926q0-.469-.138-.75a.85.85 0 0 0-.404-.415 1.45 1.45 0 0 0-.651-.132 1.5 1.5 0 0 0-.696.16 1.7 1.7 0 0 0-.535.442 2.2 2.2 0 0 0-.348.646 2.4 2.4 0 0 0-.122.762m9.181-2.761h.928v5.847q0 .79-.321 1.347a2.1 2.1 0 0 1-.894.845q-.569.293-1.314.293-.309 0-.729-.1a3 3 0 0 1-.817-.325 2.05 2.05 0 0 1-.668-.613l.535-.608q.376.453.784.63.414.176.817.176.486 0 .84-.182.353-.182.546-.541.2-.353.199-.872v-4.583zm-4.113 3.053v-.116q0-.684.16-1.242.166-.562.469-.966.31-.403.745-.619a2.15 2.15 0 0 1 .983-.22q.563 0 .983.198a1.9 1.9 0 0 1 .718.569q.298.37.469.895.171.524.237 1.187v.508q-.06.656-.237 1.181-.17.525-.469.895a2 2 0 0 1-.718.568 2.4 2.4 0 0 1-.994.194q-.536 0-.972-.227a2.2 2.2 0 0 1-.739-.635 3 3 0 0 1-.475-.961 4.4 4.4 0 0 1-.16-1.209m1.021-.116v.116q0 .447.088.84.094.392.282.69.194.297.491.469.299.166.713.166.507 0 .839-.216.332-.215.524-.568.2-.354.31-.768v-1.33a2.7 2.7 0 0 0-.188-.586 1.8 1.8 0 0 0-.32-.508 1.4 1.4 0 0 0-.481-.359 1.6 1.6 0 0 0-.673-.132q-.42 0-.724.177a1.4 1.4 0 0 0-.491.474 2.3 2.3 0 0 0-.282.696 3.8 3.8 0 0 0-.088.839m31.907-.116h-2.148v-.866h2.148q.624 0 1.011-.199.386-.2.563-.552.182-.354.182-.806 0-.415-.182-.779a1.35 1.35 0 0 0-.563-.585q-.387-.227-1.011-.227h-1.899v7.167h-1.066v-8.039h2.965q.911 0 1.541.315t.955.872q.326.552.326 1.265 0 .773-.326 1.319a2.1 2.1 0 0 1-.955.834q-.63.281-1.541.281m4.874-1.882v5.035h-1.021v-5.974h.993zm1.866-.972-.005.95a2.7 2.7 0 0 0-.497-.045q-.354 0-.624.111-.27.11-.458.309a1.5 1.5 0 0 0-.298.475q-.105.27-.139.596l-.287.166q0-.542.105-1.016.11-.475.337-.839.226-.37.574-.575a1.63 1.63 0 0 1 1.094-.182.7.7 0 0 1 .198.05m1.893.033v5.974h-1.027v-5.974zm-1.105-1.585q0-.248.149-.419.155-.171.453-.171.293 0 .447.171a.6.6 0 0 1 .161.419.58.58 0 0 1-.161.409q-.154.166-.447.166-.298 0-.453-.166a.6.6 0 0 1-.149-.409m4.974 6.83q.364 0 .673-.149a1.4 1.4 0 0 0 .508-.408q.199-.266.227-.602h.971a1.8 1.8 0 0 1-.358.988 2.48 2.48 0 0 1-2.021 1.011q-.673 0-1.176-.238a2.3 2.3 0 0 1-.829-.651 2.9 2.9 0 0 1-.491-.95 4 4 0 0 1-.16-1.143v-.232q0-.601.16-1.137.166-.541.491-.955.331-.415.829-.652.502-.237 1.176-.237.701 0 1.225.287a2.1 2.1 0 0 1 .823.773q.304.486.331 1.104h-.971a1.5 1.5 0 0 0-.21-.668 1.36 1.36 0 0 0-1.198-.657q-.47 0-.79.188a1.4 1.4 0 0 0-.502.496q-.183.31-.265.691-.078.375-.078.767v.232q0 .392.078.773.077.381.259.69.188.31.503.497.32.183.795.182m4.476-5.245v5.974h-1.027v-5.974zm-1.104-1.585q0-.248.149-.419.155-.171.453-.171.293 0 .447.171a.6.6 0 0 1 .16.419.58.58 0 0 1-.16.409q-.154.166-.447.166-.298 0-.453-.166a.6.6 0 0 1-.149-.409m3.604 2.86v4.699h-1.022v-5.974h.967zm-.243 1.486-.425-.017q.005-.613.182-1.132a2.8 2.8 0 0 1 .497-.911 2.21 2.21 0 0 1 1.75-.811q.443 0 .795.121.353.116.602.376.254.26.387.673.132.409.132.999v3.915h-1.027v-3.926q0-.469-.138-.75a.85.85 0 0 0-.403-.415 1.45 1.45 0 0 0-.652-.132q-.38 0-.695.16a1.7 1.7 0 0 0-.536.442 2.23 2.23 0 0 0-.469 1.408m9.18-2.761h.928v5.847q0 .79-.32 1.347a2.1 2.1 0 0 1-.895.845q-.569.293-1.314.293-.309 0-.729-.1a3 3 0 0 1-.817-.325 2.1 2.1 0 0 1-.668-.613l.536-.608q.375.453.784.63.414.176.817.176a1.8 1.8 0 0 0 .839-.182 1.27 1.27 0 0 0 .547-.541q.199-.353.199-.872v-4.583zm-4.113 3.053v-.116q0-.684.16-1.242a3 3 0 0 1 .47-.966 2.1 2.1 0 0 1 1.728-.839q.563 0 .982.198.426.194.718.569.298.37.47.895.171.524.237 1.187v.508q-.061.656-.237 1.181-.172.525-.47.895a1.96 1.96 0 0 1-.718.568 2.4 2.4 0 0 1-.993.194q-.536 0-.972-.227a2.2 2.2 0 0 1-.74-.635 3 3 0 0 1-.475-.961 4.4 4.4 0 0 1-.16-1.209m1.022-.116v.116q0 .447.088.84.093.392.281.69.193.297.492.469.298.166.712.166.508 0 .839-.216.332-.215.525-.568.198-.354.309-.768v-1.33a2.7 2.7 0 0 0-.188-.586 1.8 1.8 0 0 0-.32-.508 1.4 1.4 0 0 0-.48-.359 1.6 1.6 0 0 0-.674-.132q-.42 0-.723.177a1.4 1.4 0 0 0-.492.474 2.3 2.3 0 0 0-.281.696 3.8 3.8 0 0 0-.088.839"/></g></g></g><rect width="524.2" height="350.2" x=".4" y=".4" stroke="#CDCDCD" stroke-width=".8" rx="7.6"/><defs><clipPath id="a"><rect width="525" height="351" fill="#fff" rx="8"/></clipPath><clipPath id="b"><path fill="#fff" d="M120 99.375h85.75v21H120z"/></clipPath><clipPath id="c"><path fill="#fff" d="M53.502 105.5h45.5V116h-45.5z"/></clipPath><clipPath id="d"><path fill="#fff" d="M36 133.5h1260v995.885H36z"/></clipPath><clipPath id="g"><path fill="#fff" d="M55.385 147.231h73.5v27.462h-73.5z"/></clipPath><clipPath id="h"><path fill="#fff" d="M55.385 147.231h73.5v27.462h-73.5z"/></clipPath><filter id="e" width="1266.46" height="1002.35" x="32.769" y="133.5" color-interpolation-filters="sRGB" filterUnits="userSpaceOnUse"><feFlood flood-opacity="0" result="BackgroundImageFix"/><feColorMatrix in="SourceAlpha" result="hardAlpha" values="0 0 0 0 0 0 0 0 0 0 0 0 0 0 0 0 0 0 127 0"/><feOffset dy="3.231"/><feGaussianBlur stdDeviation="1.615"/><feComposite in2="hardAlpha" operator="out"/><feColorMatrix values="0 0 0 0 1 0 0 0 0 1 0 0 0 0 1 0 0 0 0.25 0"/><feBlend in2="BackgroundImageFix" result="effect1_dropShadow_3501_50522"/><feBlend in="SourceGraphic" in2="effect1_dropShadow_3501_50522" result="shape"/></filter><filter id="f" width="1486.96" height="74.308" x="-181.269" y="127.038" color-interpolation-filters="sRGB" filterUnits="userSpaceOnUse"><feFlood flood-opacity="0" result="BackgroundImageFix"/><feColorMatrix in="SourceAlpha" result="hardAlpha" values="0 0 0 0 0 0 0 0 0 0 0 0 0 0 0 0 0 0 127 0"/><feOffset dy="3.231"/><feGaussianBlur stdDeviation="4.846"/><feComposite in2="hardAlpha" operator="out"/><feColorMatrix values="0 0 0 0 0.639216 0 0 0 0 0.611765 0 0 0 0 0.709804 0 0 0 0.08 0"/><feBlend in2="BackgroundImageFix" result="effect1_dropShadow_3501_50522"/><feColorMatrix in="SourceAlpha" result="hardAlpha" values="0 0 0 0 0 0 0 0 0 0 0 0 0 0 0 0 0 0 127 0"/><feOffset dy="2.423"/><feGaussianBlur stdDeviation="2.423"/><feComposite in2="hardAlpha" operator="out"/><feColorMatrix values="0 0 0 0 0.639216 0 0 0 0 0.611765 0 0 0 0 0.709804 0 0 0 0.05 0"/><feBlend in2="effect1_dropShadow_3501_50522" result="effect2_dropShadow_3501_50522"/><feBlend in="SourceGraphic" in2="effect2_dropShadow_3501_50522" result="shape"/></filter></defs></svg>